<svg width="28" height="28" viewBox="0 0 28 28" fill="none" xmlns="http://www.w3.org/2000/svg">
<circle cx="14" cy="14" r="14" fill="#EC835D"/>
<path d="M9.30557 11.9881C8.56481 11.2473 8.56481 10.0463 9.30557 9.30557C10.0463 8.56481 11.2473 8.56481 11.9881 9.30557L18.6944 16.0119C19.4352 16.7527 19.4352 17.9537 18.6944 18.6944C17.9537 19.4352 16.7527 19.4352 16.0119 18.6944L9.30557 11.9881Z" fill="white"/>
<path d="M16.0119 9.30557C16.7527 8.56481 17.9537 8.56481 18.6944 9.30557C19.4352 10.0463 19.4352 11.2473 18.6944 11.9881L11.9881 18.6944C11.2473 19.4352 10.0463 19.4352 9.30557 18.6944C8.56481 17.9537 8.56481 16.7527 9.30557 16.0119L16.0119 9.30557Z" fill="white"/>
</svg>
