<svg width="16" height="16" viewBox="0 0 16 16" fill="none" xmlns="http://www.w3.org/2000/svg">
<circle cx="8" cy="8" r="8" fill="#EC835D"/>
<path d="M5.31747 6.85034C4.89418 6.42705 4.89418 5.74076 5.31747 5.31747C5.74076 4.89418 6.42705 4.89418 6.85034 5.31747L10.6825 9.14966C11.1058 9.57295 11.1058 10.2592 10.6825 10.6825C10.2592 11.1058 9.57295 11.1058 9.14966 10.6825L5.31747 6.85034Z" fill="white"/>
<path d="M9.14966 5.31747C9.57295 4.89418 10.2592 4.89418 10.6825 5.31747C11.1058 5.74076 11.1058 6.42705 10.6825 6.85034L6.85034 10.6825C6.42705 11.1058 5.74076 11.1058 5.31747 10.6825C4.89418 10.2592 4.89418 9.57295 5.31747 9.14966L9.14966 5.31747Z" fill="white"/>
</svg>
