<svg width="50" height="31" viewBox="0 0 50 31" fill="none" xmlns="http://www.w3.org/2000/svg">
<rect y="0.5" width="50" height="30" rx="3" fill="white"/>
<path d="M10.9134 11.6903V9.13636H11.7656V13.5H10.9304V12.7443H10.8849C10.7846 12.9773 10.6236 13.1714 10.402 13.3267C10.1823 13.4801 9.90862 13.5568 9.58097 13.5568C9.30066 13.5568 9.05256 13.4953 8.83665 13.3722C8.62263 13.2472 8.45407 13.0625 8.33097 12.8182C8.20975 12.5739 8.14915 12.2718 8.14915 11.9119V9.13636H8.99858V11.8097C8.99858 12.107 9.08097 12.3437 9.24574 12.5199C9.41051 12.696 9.62453 12.7841 9.88778 12.7841C10.0469 12.7841 10.205 12.7443 10.3622 12.6648C10.5213 12.5852 10.6529 12.465 10.7571 12.304C10.8632 12.143 10.9152 11.9384 10.9134 11.6903ZM13.7564 10.9091V13.5H12.907V9.13636H13.7223V9.84659H13.7763C13.8767 9.61553 14.0339 9.42992 14.2479 9.28977C14.4638 9.14962 14.7356 9.07955 15.0632 9.07955C15.3606 9.07955 15.621 9.14205 15.8445 9.26705C16.0679 9.39015 16.2412 9.57386 16.3643 9.81818C16.4875 10.0625 16.549 10.3646 16.549 10.7244V13.5H15.6996V10.8267C15.6996 10.5104 15.6172 10.2633 15.4524 10.0852C15.2876 9.9053 15.0613 9.81534 14.7734 9.81534C14.5765 9.81534 14.4013 9.85795 14.2479 9.94318C14.0964 10.0284 13.9761 10.1534 13.8871 10.3182C13.8 10.4811 13.7564 10.678 13.7564 10.9091ZM18.4695 12.0199L18.4638 10.983H18.6115L20.3501 9.13636H21.3672L19.3842 11.2386H19.2507L18.4695 12.0199ZM17.6882 13.5V7.68182H18.5376V13.5H17.6882ZM20.4439 13.5L18.8814 11.4261L19.4666 10.8324L21.4865 13.5H20.4439ZM22.9908 10.9091V13.5H22.1413V9.13636H22.9567V9.84659H23.0107C23.111 9.61553 23.2682 9.42992 23.4822 9.28977C23.6982 9.14962 23.9699 9.07955 24.2976 9.07955C24.5949 9.07955 24.8554 9.14205 25.0788 9.26705C25.3023 9.39015 25.4756 9.57386 25.5987 9.81818C25.7218 10.0625 25.7834 10.3646 25.7834 10.7244V13.5H24.9339V10.8267C24.9339 10.5104 24.8516 10.2633 24.6868 10.0852C24.522 9.9053 24.2957 9.81534 24.0078 9.81534C23.8108 9.81534 23.6357 9.85795 23.4822 9.94318C23.3307 10.0284 23.2105 10.1534 23.1214 10.3182C23.0343 10.4811 22.9908 10.678 22.9908 10.9091ZM28.7607 13.5881C28.3516 13.5881 27.9946 13.4943 27.6896 13.3068C27.3847 13.1193 27.148 12.857 26.9794 12.5199C26.8108 12.1828 26.7266 11.7888 26.7266 11.3381C26.7266 10.8854 26.8108 10.4896 26.9794 10.1506C27.148 9.81155 27.3847 9.5483 27.6896 9.3608C27.9946 9.1733 28.3516 9.07955 28.7607 9.07955C29.1697 9.07955 29.5268 9.1733 29.8317 9.3608C30.1366 9.5483 30.3733 9.81155 30.5419 10.1506C30.7105 10.4896 30.7947 10.8854 30.7947 11.3381C30.7947 11.7888 30.7105 12.1828 30.5419 12.5199C30.3733 12.857 30.1366 13.1193 29.8317 13.3068C29.5268 13.4943 29.1697 13.5881 28.7607 13.5881ZM28.7635 12.875C29.0286 12.875 29.2483 12.8049 29.4226 12.6648C29.5968 12.5246 29.7256 12.3381 29.8089 12.1051C29.8942 11.8722 29.9368 11.6155 29.9368 11.3352C29.9368 11.0568 29.8942 10.8011 29.8089 10.5682C29.7256 10.3333 29.5968 10.1449 29.4226 10.0028C29.2483 9.8608 29.0286 9.78977 28.7635 9.78977C28.4964 9.78977 28.2749 9.8608 28.0987 10.0028C27.9245 10.1449 27.7947 10.3333 27.7095 10.5682C27.6262 10.8011 27.5845 11.0568 27.5845 11.3352C27.5845 11.6155 27.6262 11.8722 27.7095 12.1051C27.7947 12.3381 27.9245 12.5246 28.0987 12.6648C28.2749 12.8049 28.4964 12.875 28.7635 12.875ZM32.5561 13.5L31.272 9.13636H32.1499L33.005 12.3409H33.0476L33.9055 9.13636H34.7834L35.6357 12.3267H35.6783L36.5277 9.13636H37.4055L36.1243 13.5H35.2578L34.3714 10.3494H34.3061L33.4197 13.5H32.5561ZM39.0611 10.9091V13.5H38.2116V9.13636H39.027V9.84659H39.081C39.1813 9.61553 39.3385 9.42992 39.5526 9.28977C39.7685 9.14962 40.0402 9.07955 40.3679 9.07955C40.6652 9.07955 40.9257 9.14205 41.1491 9.26705C41.3726 9.39015 41.5459 9.57386 41.669 9.81818C41.7921 10.0625 41.8537 10.3646 41.8537 10.7244V13.5H41.0043V10.8267C41.0043 10.5104 40.9219 10.2633 40.7571 10.0852C40.5923 9.9053 40.366 9.81534 40.0781 9.81534C39.8812 9.81534 39.706 9.85795 39.5526 9.94318C39.401 10.0284 39.2808 10.1534 39.1918 10.3182C39.1046 10.4811 39.0611 10.678 39.0611 10.9091ZM14.9386 19.2017L14.1687 19.3381C14.1365 19.2396 14.0853 19.1458 14.0153 19.0568C13.9471 18.9678 13.8543 18.8949 13.7369 18.8381C13.6194 18.7812 13.4727 18.7528 13.2965 18.7528C13.056 18.7528 12.8552 18.8068 12.6942 18.9148C12.5333 19.0208 12.4528 19.1581 12.4528 19.3267C12.4528 19.4725 12.5067 19.59 12.6147 19.679C12.7227 19.768 12.8969 19.8409 13.1374 19.8977L13.8306 20.0568C14.2321 20.1496 14.5314 20.2926 14.7283 20.4858C14.9253 20.679 15.0238 20.9299 15.0238 21.2386C15.0238 21.5 14.948 21.733 14.7965 21.9375C14.6469 22.1402 14.4376 22.2992 14.1687 22.4148C13.9016 22.5303 13.592 22.5881 13.2397 22.5881C12.7511 22.5881 12.3524 22.4839 12.0437 22.2756C11.735 22.0653 11.5456 21.767 11.4755 21.3807L12.2965 21.2557C12.3477 21.4697 12.4528 21.6316 12.6119 21.7415C12.771 21.8494 12.9783 21.9034 13.234 21.9034C13.5124 21.9034 13.735 21.8456 13.9016 21.7301C14.0683 21.6127 14.1516 21.4697 14.1516 21.3011C14.1516 21.1648 14.1005 21.0502 13.9982 20.9574C13.8978 20.8646 13.7435 20.7945 13.5352 20.7472L12.7965 20.5852C12.3893 20.4924 12.0882 20.3447 11.8931 20.142C11.6999 19.9394 11.6033 19.6828 11.6033 19.3722C11.6033 19.1146 11.6753 18.8892 11.8192 18.696C11.9632 18.5028 12.1621 18.3523 12.4158 18.2443C12.6696 18.1345 12.9603 18.0795 13.288 18.0795C13.7596 18.0795 14.1308 18.1818 14.4016 18.3864C14.6725 18.589 14.8514 18.8608 14.9386 19.2017ZM16.4947 24.1364C16.3678 24.1364 16.2522 24.1259 16.1481 24.1051C16.0439 24.0862 15.9663 24.0653 15.9151 24.0426L16.1197 23.3466C16.275 23.3883 16.4132 23.4063 16.5344 23.4006C16.6557 23.3949 16.7627 23.3494 16.8555 23.2642C16.9502 23.179 17.0335 23.0398 17.1055 22.8466L17.2106 22.5568L15.614 18.1364H16.5231L17.6282 21.5227H17.6737L18.7788 18.1364H19.6907L17.8924 23.0824C17.8091 23.3097 17.703 23.5019 17.5742 23.6591C17.4454 23.8182 17.292 23.9375 17.114 24.017C16.936 24.0966 16.7295 24.1364 16.4947 24.1364ZM23.7589 19.2017L22.989 19.3381C22.9568 19.2396 22.9057 19.1458 22.8356 19.0568C22.7674 18.9678 22.6746 18.8949 22.5572 18.8381C22.4397 18.7812 22.293 18.7528 22.1168 18.7528C21.8763 18.7528 21.6755 18.8068 21.5146 18.9148C21.3536 19.0208 21.2731 19.1581 21.2731 19.3267C21.2731 19.4725 21.3271 19.59 21.435 19.679C21.543 19.768 21.7172 19.8409 21.9577 19.8977L22.6509 20.0568C23.0524 20.1496 23.3517 20.2926 23.5487 20.4858C23.7456 20.679 23.8441 20.9299 23.8441 21.2386C23.8441 21.5 23.7683 21.733 23.6168 21.9375C23.4672 22.1402 23.2579 22.2992 22.989 22.4148C22.7219 22.5303 22.4123 22.5881 22.06 22.5881C21.5714 22.5881 21.1727 22.4839 20.864 22.2756C20.5553 22.0653 20.3659 21.767 20.2958 21.3807L21.1168 21.2557C21.168 21.4697 21.2731 21.6316 21.4322 21.7415C21.5913 21.8494 21.7987 21.9034 22.0543 21.9034C22.3327 21.9034 22.5553 21.8456 22.7219 21.7301C22.8886 21.6127 22.9719 21.4697 22.9719 21.3011C22.9719 21.1648 22.9208 21.0502 22.8185 20.9574C22.7182 20.8646 22.5638 20.7945 22.3555 20.7472L21.6168 20.5852C21.2096 20.4924 20.9085 20.3447 20.7134 20.142C20.5202 19.9394 20.4237 19.6828 20.4237 19.3722C20.4237 19.1146 20.4956 18.8892 20.6396 18.696C20.7835 18.5028 20.9824 18.3523 21.2362 18.2443C21.4899 18.1345 21.7807 18.0795 22.1083 18.0795C22.5799 18.0795 22.9511 18.1818 23.2219 18.3864C23.4928 18.589 23.6718 18.8608 23.7589 19.2017ZM26.815 18.1364V18.8182H24.4315V18.1364H26.815ZM25.0707 17.0909H25.9201V21.2188C25.9201 21.3835 25.9447 21.5076 25.994 21.5909C26.0432 21.6723 26.1067 21.7282 26.1843 21.7585C26.2638 21.7869 26.35 21.8011 26.4428 21.8011C26.511 21.8011 26.5707 21.7964 26.6218 21.7869C26.6729 21.7775 26.7127 21.7699 26.7411 21.7642L26.8945 22.4659C26.8453 22.4848 26.7752 22.5038 26.6843 22.5227C26.5934 22.5436 26.4798 22.5549 26.3434 22.5568C26.1199 22.5606 25.9116 22.5208 25.7184 22.4375C25.5252 22.3542 25.369 22.2254 25.2496 22.0511C25.1303 21.8769 25.0707 21.6581 25.0707 21.3949V17.0909ZM29.5884 22.5881C29.1585 22.5881 28.7882 22.4962 28.4776 22.3125C28.1689 22.1269 27.9303 21.8665 27.7617 21.5312C27.5951 21.1941 27.5117 20.7992 27.5117 20.3466C27.5117 19.8996 27.5951 19.5057 27.7617 19.1648C27.9303 18.8239 28.1651 18.5578 28.4663 18.3665C28.7693 18.1752 29.1235 18.0795 29.5288 18.0795C29.775 18.0795 30.0136 18.1203 30.2447 18.2017C30.4757 18.2831 30.6831 18.411 30.8668 18.5852C31.0505 18.7595 31.1954 18.9858 31.3015 19.2642C31.4076 19.5407 31.4606 19.8769 31.4606 20.2727V20.5739H27.9918V19.9375H30.6282C30.6282 19.714 30.5827 19.5161 30.4918 19.3438C30.4009 19.1695 30.2731 19.0322 30.1083 18.9318C29.9454 18.8314 29.7541 18.7812 29.5344 18.7812C29.2958 18.7812 29.0875 18.84 28.9094 18.9574C28.7333 19.0729 28.5969 19.2244 28.5004 19.4119C28.4057 19.5975 28.3583 19.7992 28.3583 20.017V20.5142C28.3583 20.8059 28.4094 21.054 28.5117 21.2585C28.6159 21.4631 28.7608 21.6193 28.9464 21.7273C29.132 21.8333 29.3488 21.8864 29.5969 21.8864C29.7579 21.8864 29.9047 21.8636 30.0373 21.8182C30.1699 21.7708 30.2844 21.7008 30.381 21.608C30.4776 21.5152 30.5515 21.4006 30.6026 21.2642L31.4066 21.4091C31.3422 21.6458 31.2267 21.8532 31.06 22.0312C30.8952 22.2074 30.6879 22.3447 30.4379 22.4432C30.1897 22.5398 29.9066 22.5881 29.5884 22.5881ZM32.4031 22.5V18.1364H33.2184V18.8466H33.2724C33.3633 18.6061 33.512 18.4186 33.7184 18.2841C33.9248 18.1477 34.172 18.0795 34.4599 18.0795C34.7515 18.0795 34.9959 18.1477 35.1928 18.2841C35.3917 18.4205 35.5385 18.608 35.6332 18.8466H35.6786C35.7828 18.6136 35.9485 18.428 36.1758 18.2898C36.4031 18.1496 36.6739 18.0795 36.9883 18.0795C37.3841 18.0795 37.707 18.2036 37.957 18.4517C38.2089 18.6998 38.3349 19.0739 38.3349 19.5739V22.5H37.4854V19.6534C37.4854 19.358 37.4049 19.1439 37.244 19.0114C37.083 18.8788 36.8907 18.8125 36.6673 18.8125C36.3907 18.8125 36.1758 18.8977 36.0224 19.0682C35.869 19.2367 35.7923 19.4536 35.7923 19.7188V22.5H34.9457V19.5994C34.9457 19.3627 34.8718 19.1723 34.7241 19.0284C34.5763 18.8845 34.3841 18.8125 34.1474 18.8125C33.9864 18.8125 33.8377 18.8551 33.7013 18.9403C33.5669 19.0237 33.458 19.1402 33.3746 19.2898C33.2932 19.4394 33.2525 19.6127 33.2525 19.8097V22.5H32.4031Z" fill="black"/>
</svg>
