<svg width="24" height="24" viewBox="0 0 24 24" fill="none" xmlns="http://www.w3.org/2000/svg">
<path d="M8 9.5C8 9.5 10.0264 8.33994 11.9599 8.33333C13.9225 8.32663 16 9.5 16 9.5C15.6991 8.53384 15.6494 6.97279 15.7254 5.58531C15.8205 3.85097 17.2222 1.07127 17.7449 1.07127C18.2675 1.07127 19.5029 2.71058 19.9306 5.58531C20.3894 8.66939 19.6455 10.2894 19.0753 11.0972C19.7326 11.3902 21.1043 12.7365 21.3323 15.5875C21.6174 19.1512 17.7686 23 11.8766 23C6.43601 23 2.30205 19.0086 2.58714 15.4449C2.81522 12.594 4.18685 11.2952 4.84415 11.0022C4.27396 10.1944 3.43502 8.62188 3.89383 5.5378C4.3215 2.66307 5.58065 1 6.10333 1C6.62601 1 8.07526 3.80346 8.17029 5.5378C8.24631 6.92527 8.30094 8.53384 8 9.5Z" stroke="#ED6F2D" stroke-width="1.5" stroke-linejoin="round"/>
<circle cx="8.95996" cy="14.5" r="1.5" fill="#ED6F2D"/>
<circle cx="14.96" cy="14.5" r="1.5" fill="#ED6F2D"/>
</svg>
