<svg width="30" height="30" viewBox="0 0 30 30" fill="none" xmlns="http://www.w3.org/2000/svg">
<path d="M11.0516 15.7435C11.8707 15.7435 12.5347 15.0795 12.5347 14.2604C12.5347 13.4413 11.8707 12.7773 11.0516 12.7773C10.2325 12.7773 9.56848 13.4413 9.56848 14.2604C9.56848 15.0795 10.2325 15.7435 11.0516 15.7435Z" stroke="#607D8B" stroke-width="1.09091" stroke-linecap="round" stroke-linejoin="round"/>
<path d="M19.9507 15.7435C20.7698 15.7435 21.4338 15.0795 21.4338 14.2604C21.4338 13.4413 20.7698 12.7773 19.9507 12.7773C19.1317 12.7773 18.4677 13.4413 18.4677 14.2604C18.4677 15.0795 19.1317 15.7435 19.9507 15.7435Z" stroke="#607D8B" stroke-width="1.09091" stroke-linecap="round" stroke-linejoin="round"/>
<path d="M9.56848 26.125V29.0912H21.4333V26.125" stroke="#607D8B" stroke-width="1.09091" stroke-linecap="round" stroke-linejoin="round"/>
<path d="M16.2425 21.6755L15.5009 20.1924L14.7594 21.6755H16.2425Z" stroke="#607D8B" stroke-width="1.09091" stroke-linecap="round" stroke-linejoin="round"/>
<path d="M21.4335 26.1249C21.9922 26.1246 22.5394 25.9665 23.0122 25.6688C23.4849 25.3711 23.864 24.946 24.1058 24.4423C24.3475 23.9386 24.4421 23.377 24.3787 22.8219C24.3153 22.2668 24.0963 21.741 23.7472 21.3049C25.4468 19.662 26.6169 17.549 27.1075 15.2367C27.5982 12.9243 27.3869 10.5182 26.5009 8.32673C25.6149 6.13527 24.0945 4.25841 22.1347 2.93682C20.1749 1.61524 17.8649 0.90918 15.5011 0.90918C13.1374 0.90918 10.8274 1.61524 8.86761 2.93682C6.90778 4.25841 5.38737 6.13527 4.50136 8.32673C3.61535 10.5182 3.40412 12.9243 3.89475 15.2367C4.38539 17.549 5.55553 19.662 7.25512 21.3049C6.90595 21.741 6.68704 22.2668 6.62359 22.8219C6.56015 23.377 6.65475 23.9386 6.89651 24.4423C7.13826 24.946 7.51734 25.3711 7.9901 25.6688C8.46286 25.9665 9.01008 26.1246 9.56875 26.1249" stroke="#607D8B" stroke-width="1.09091" stroke-linecap="round" stroke-linejoin="round"/>
</svg>
