<svg width="256" height="267" viewBox="0 0 256 267" fill="none" xmlns="http://www.w3.org/2000/svg">
<path d="M27.3126 45.3446C27.3126 45.5074 27.2313 45.5887 27.0686 45.5887C27.0686 45.5887 27.0686 45.5074 27.0686 45.3446C27.0686 45.3446 27.1499 45.3446 27.3126 45.3446ZM27.0686 45.3446C26.9058 45.3446 26.8245 45.2633 26.8245 45.1006C26.8245 45.2633 26.9058 45.3446 27.0686 45.3446ZM32.6823 133.456L32.4382 133.211L32.6823 133.456ZM22.4311 206.434V206.19V206.434ZM23.4074 206.434V206.678V206.434ZM22.1871 205.946C22.3498 205.783 22.4311 205.864 22.4311 206.19C22.4311 206.027 22.3498 205.946 22.1871 205.946ZM26.0923 209.607C26.0923 209.444 26.0109 209.363 25.8482 209.363L26.0923 209.607ZM28.7771 213.024C28.6144 213.024 28.533 212.942 28.533 212.78L28.7771 213.024ZM29.7534 213.268H29.5093H29.7534ZM153.011 6.53681C153.336 7.02496 153.418 7.59446 153.255 8.24533C153.255 8.73348 153.336 9.30299 153.499 9.95385C152.848 10.2793 152.441 10.8488 152.279 11.6624C152.279 12.3132 152.197 12.8827 152.035 13.3709C151.709 14.9981 151.058 16.4625 150.082 17.7642C149.268 19.066 148.455 20.2863 147.641 21.4253C147.804 21.9135 147.723 22.3203 147.397 22.6457C147.235 22.9711 147.153 23.4593 147.153 24.1102C147.316 23.7847 147.235 23.7847 146.909 24.1102C146.746 24.2729 146.502 24.1915 146.177 23.8661L145.933 25.0865H145.201C144.875 25.5746 144.55 26.2255 144.224 27.0391C143.899 27.6899 143.573 28.2594 143.248 28.7476H143.492C143.167 29.073 142.923 29.073 142.76 28.7476C142.76 29.073 142.516 29.4798 142.028 29.968C141.702 30.4561 141.702 30.8629 142.028 31.1883L141.539 31.6765C141.865 31.5138 142.272 31.5138 142.76 31.6765C142.434 32.6528 142.272 33.7104 142.272 34.8494C142.434 34.6867 142.678 34.6054 143.004 34.6054C142.678 34.6054 142.434 34.6867 142.272 34.8494C141.458 35.5003 140.4 36.6393 139.099 38.2665C137.797 39.7309 136.902 40.8699 136.414 41.6835C135.112 42.9853 133.973 44.287 132.997 45.5887C132.021 46.7277 131.37 48.1922 131.044 49.9821C131.044 50.3075 130.963 50.6329 130.8 50.9584C130.8 51.1211 130.963 51.3651 131.288 51.6906C131.451 51.6906 131.288 51.8533 130.8 52.1787C130.475 52.3414 130.068 52.5855 129.58 52.9109C129.092 53.2364 128.848 53.8872 128.848 54.8635V55.1076C128.522 55.7585 128.359 56.1653 128.359 56.328H128.604C128.441 56.6534 128.359 57.0602 128.359 57.5484C128.359 58.0365 128.197 58.5247 127.871 59.0128L128.115 58.7687C128.115 58.7687 128.034 58.8501 127.871 59.0128C127.22 60.4773 126.488 61.9417 125.675 63.4061C125.024 64.8706 124.292 66.2537 123.478 67.5554C123.478 68.2063 123.315 68.7758 122.99 69.2639C122.664 69.5894 122.42 70.0775 122.258 70.7284C122.42 70.4029 122.339 70.4029 122.014 70.7284C121.688 71.0538 121.363 71.1352 121.037 70.9725L120.549 72.4369C120.549 72.4369 120.386 72.5183 120.061 72.681C119.735 73.3318 119.329 74.1454 118.841 75.1217C118.352 75.9353 117.864 76.7489 117.376 77.5625L117.864 77.3184C117.702 77.6438 117.457 77.8879 117.132 78.0506C116.969 78.2133 116.807 78.132 116.644 77.8065C116.644 78.132 116.481 78.5388 116.156 79.0269C115.83 79.5151 115.83 80.0846 116.156 80.7354L115.668 80.9795H117.376C116.888 81.6304 116.563 82.3626 116.4 83.1762C116.237 83.827 115.993 84.5593 115.668 85.3728C116.156 85.2101 116.644 84.9661 117.132 84.6406C116.481 84.9661 116.074 85.1288 115.912 85.1288C115.586 85.6169 115.098 86.3491 114.447 87.3254C113.796 88.139 113.145 89.034 112.495 90.0103C111.844 90.9866 111.193 91.8815 110.542 92.6951C109.891 93.5087 109.322 94.1595 108.833 94.6477C107.369 96.4376 106.067 98.3088 104.928 100.261C103.789 102.051 103.057 103.923 102.732 105.875C102.732 106.201 102.65 106.526 102.488 106.851C102.488 107.177 102.488 107.502 102.488 107.828C102.813 108.153 102.488 108.641 101.511 109.292C100.535 109.943 99.64 110.106 98.8264 109.78C99.64 111.57 99.5587 113.116 98.5824 114.418C97.6061 115.557 96.3857 116.533 94.9212 117.347V117.591H95.1653C95.0026 117.916 94.8399 118.242 94.6772 118.567C94.5145 118.73 94.2704 118.974 93.9449 119.299C94.1077 119.95 94.1077 120.601 93.9449 121.252C93.7822 121.903 93.7009 122.554 93.7009 123.204C93.05 124.018 92.6432 124.832 92.4805 125.645C92.4805 126.459 92.3991 127.272 92.2364 128.086V127.842C91.2601 130.12 90.2838 132.235 89.3075 134.188C88.3312 136.14 87.1922 138.093 85.8905 140.046C85.5651 140.696 85.2396 141.266 84.9142 141.754C84.7515 142.242 84.5888 142.893 84.426 143.707C84.5888 143.218 84.5074 143.218 84.182 143.707C84.0193 144.032 83.7752 144.032 83.4497 143.707L82.7175 145.415C82.3921 145.09 82.2294 145.09 82.2294 145.415C81.5785 146.229 81.009 147.124 80.5209 148.1C80.1954 148.914 79.7073 149.727 79.0564 150.541H79.3005C79.1378 150.866 78.8937 151.11 78.5683 151.273C78.4055 151.436 78.3242 151.354 78.3242 151.029C78.1615 151.517 77.9174 152.087 77.592 152.737C77.2665 153.226 77.2665 153.714 77.592 154.202L76.8597 154.69C77.5106 154.527 77.9988 154.446 78.3242 154.446C77.9988 155.259 77.7547 156.073 77.592 156.887C77.4292 157.7 77.1852 158.514 76.8597 159.327C77.3479 159.002 77.6733 158.677 77.836 158.351L76.8597 159.327C75.8834 160.141 74.5817 161.768 72.9545 164.209C71.3274 166.487 70.1884 168.195 69.5375 169.334C67.7476 171.287 66.1205 173.24 64.656 175.192C63.3543 176.982 62.4593 178.935 61.9712 181.05C61.9712 182.026 61.8898 182.759 61.7271 183.247C61.8898 183.409 61.5644 183.898 60.7508 184.711C59.9372 185.525 58.9609 185.769 57.8219 185.443C58.9609 187.233 58.8796 188.942 57.5779 190.569C56.4388 192.033 55.0558 193.254 53.4286 194.23C53.754 193.579 54.1608 192.928 54.649 192.277C55.1371 191.627 55.5439 190.894 55.8693 190.081L55.6253 190.813C55.2998 189.999 54.9744 189.999 54.649 190.813C54.9744 190.976 54.9744 191.464 54.649 192.277C54.3235 192.603 53.9981 192.766 53.6727 192.766C53.51 192.603 53.4286 192.766 53.4286 193.254C53.2659 193.091 53.0218 193.01 52.6964 193.01C52.3709 193.172 52.2082 193.254 52.2082 193.254C52.3709 193.091 52.2896 193.172 51.9641 193.498C51.8014 193.661 51.8828 193.905 52.2082 194.23C52.2082 194.555 52.0455 194.718 51.7201 194.718C51.7201 194.555 51.5574 194.474 51.2319 194.474C51.2319 194.8 50.9879 195.044 50.4997 195.206C50.1743 195.694 49.8488 196.101 49.5234 196.427C49.5234 196.427 49.3607 196.508 49.0353 196.671C49.6861 198.135 49.198 199.274 47.5708 200.088C47.4081 200.901 47.0013 201.552 46.3504 202.04C45.8623 202.529 45.2114 203.017 44.3978 203.505C44.0724 204.318 43.9097 204.725 43.9097 204.725C43.9097 204.563 43.9911 204.237 44.1538 203.749H43.9097V205.213C43.2588 205.213 43.0961 205.376 43.4215 205.702C43.4215 205.702 43.5843 205.702 43.9097 205.702L43.4215 205.946C43.4215 206.108 43.2588 206.027 42.9334 205.702C42.608 205.702 42.4452 205.946 42.4452 206.434C42.4452 206.759 42.2825 207.085 41.9571 207.41C41.6317 207.085 41.5503 206.841 41.713 206.678C41.8757 206.515 41.7944 206.434 41.4689 206.434C41.6317 206.108 41.713 206.108 41.713 206.434C41.8757 206.596 42.0385 206.515 42.2012 206.19C42.0385 206.027 41.6317 205.946 40.9808 205.946C40.9808 206.108 40.8994 206.271 40.7367 206.434C40.574 206.596 40.4926 206.841 40.4926 207.166C40.4926 207.166 40.574 207.247 40.7367 207.41C40.7367 207.573 40.574 207.654 40.2486 207.654C40.0859 207.654 40.0859 207.817 40.2486 208.142C40.2486 208.142 40.0045 208.142 39.5164 208.142V208.874C39.0282 209.363 38.7028 209.444 38.5401 209.119C38.2146 209.932 38.2146 210.258 38.5401 210.095C38.2146 210.42 37.8892 210.502 37.5638 210.339C37.401 210.014 37.2383 209.688 37.0756 209.363C36.9129 209.688 36.8315 210.176 36.8315 210.827C36.9942 211.315 36.9942 211.559 36.8315 211.559C36.8315 211.722 36.7502 211.559 36.5875 211.071C36.5875 210.583 36.5875 210.176 36.5875 209.851L36.3434 210.095C36.3434 209.932 36.4247 210.176 36.5875 210.827C36.9129 211.478 36.9942 211.803 36.8315 211.803C36.6688 211.803 36.5875 211.885 36.5875 212.047C36.5875 212.047 36.6688 212.129 36.8315 212.292L36.5875 212.536C36.5875 212.373 36.5061 212.21 36.3434 212.047C36.018 212.047 35.8552 212.292 35.8552 212.78H36.0993C36.0993 213.105 35.9366 213.268 35.6112 213.268C35.2857 213.105 35.2044 213.024 35.3671 213.024C35.5298 212.861 35.4484 212.78 35.123 212.78C35.123 212.454 35.2044 212.454 35.3671 212.78C35.5298 212.942 35.6925 212.861 35.8552 212.536C35.5298 212.373 35.0417 212.292 34.3908 212.292C33.9026 212.617 33.6586 212.942 33.6586 213.268C33.6586 213.431 33.6586 213.512 33.6586 213.512C33.8213 213.349 33.9026 213.349 33.9026 213.512C33.9026 213.675 33.8213 213.756 33.6586 213.756C33.4958 213.756 33.4958 213.837 33.6586 214H33.4145V214.244V214.488C33.0891 214.651 32.9263 214.895 32.9263 215.22H33.1704C32.845 215.546 32.6823 215.79 32.6823 215.953C32.845 216.115 32.7636 216.359 32.4382 216.685C32.1128 217.01 31.8687 216.929 31.706 216.441C31.706 216.115 31.5433 216.034 31.2178 216.197C31.2178 215.871 31.0551 215.383 30.7297 214.732C30.567 214.732 30.4856 214.651 30.4856 214.488C30.4856 214.488 30.3229 214.57 29.9975 214.732H30.2415C30.2415 214.895 30.1602 214.976 29.9975 214.976C29.9975 214.976 29.9975 214.895 29.9975 214.732L29.5093 214.488H29.2652V214.244C29.2652 214.081 29.1839 214 29.0212 214C29.0212 213.837 29.0212 213.675 29.0212 213.512H28.7771C28.6144 213.512 28.533 213.431 28.533 213.268C28.6957 213.268 28.7771 213.186 28.7771 213.024H29.2652C29.2652 213.024 29.2652 212.78 29.2652 212.292C29.2652 212.129 29.1839 212.047 29.0212 212.047C29.0212 212.047 29.0212 211.966 29.0212 211.803C28.6957 211.966 28.2076 211.803 27.5567 211.315C27.0686 210.827 26.6618 210.746 26.3363 211.071L26.5804 211.315C26.5804 211.315 26.4991 211.234 26.3363 211.071H26.0923H25.8482V210.827C25.0346 211.153 24.3837 210.908 23.8956 210.095C23.5702 209.119 23.1634 208.956 22.6752 209.607L22.9193 209.851C22.9193 209.851 22.7566 209.851 22.4311 209.851C22.4311 209.688 22.3498 209.688 22.1871 209.851C22.1871 210.014 22.1871 209.851 22.1871 209.363C22.3498 208.874 22.4311 208.224 22.4311 207.41V207.654C22.4311 207.654 22.3498 207.573 22.1871 207.41C22.0244 207.735 21.943 207.817 21.943 207.654C21.943 207.491 22.0244 207.247 22.1871 206.922C22.1871 206.759 22.1871 206.678 22.1871 206.678C22.3498 206.678 22.4311 206.596 22.4311 206.434V206.678V206.434C22.5939 206.271 22.7566 206.19 22.9193 206.19C22.9193 205.864 23.0007 205.539 23.1634 205.213C23.3261 204.888 23.4074 204.644 23.4074 204.481C23.4074 204.156 23.3261 203.83 23.1634 203.505C23.1634 203.017 23.1634 202.61 23.1634 202.284C22.6752 201.796 22.2684 200.983 21.943 199.844C21.7803 198.542 21.2921 197.322 20.4785 196.183C20.804 194.718 20.804 193.416 20.4785 192.277C20.1531 191.138 19.9904 189.918 19.9904 188.616C19.5023 186.176 19.2582 183.653 19.2582 181.05C19.0955 181.05 19.0141 180.969 19.0141 180.806V180.562H18.77C17.7937 176.006 17.3869 171.612 17.5497 167.382H17.3056H17.0615C17.0615 167.219 16.7361 166.975 16.0852 166.65H15.8411C15.8411 166.812 15.7598 166.894 15.5971 166.894C15.5971 166.731 15.5971 166.568 15.5971 166.406V166.161C15.5971 165.836 15.6784 165.755 15.8411 165.917C15.5157 165.267 15.4343 164.941 15.5971 164.941C15.5971 164.29 15.6784 163.883 15.8411 163.721C15.8411 164.209 15.9225 164.534 16.0852 164.697C16.2479 164.534 16.2479 164.453 16.0852 164.453C15.9225 164.29 15.9225 164.128 16.0852 163.965C16.2479 163.802 16.2479 163.721 16.0852 163.721C15.9225 163.721 15.8411 163.639 15.8411 163.477C15.8411 162.663 16.0039 162.094 16.3293 161.768C16.3293 161.443 16.1666 161.117 15.8411 160.792C15.8411 161.605 15.5971 162.338 15.1089 162.989C15.2716 162.826 15.2716 162.582 15.1089 162.256C15.4343 162.256 15.5971 162.175 15.5971 162.012L15.353 161.768H15.5971L15.353 161.524C15.353 161.849 15.1089 161.768 14.6208 161.28C14.2953 161.117 13.8072 160.792 13.1563 160.304C12.5055 159.653 12.18 159.246 12.18 159.083C12.18 158.921 12.0987 158.758 11.9359 158.595C12.2614 158.595 12.2614 158.514 11.9359 158.351C11.7732 158.188 11.8546 158.026 12.18 157.863C12.18 157.538 12.0987 157.375 11.9359 157.375C11.7732 157.049 11.8546 156.805 12.18 156.643C12.5055 156.48 12.5055 156.236 12.18 155.91L12.6682 155.666C12.6682 155.341 12.5868 155.259 12.4241 155.422C12.2614 155.422 12.18 155.259 12.18 154.934C12.5055 154.609 12.6682 154.283 12.6682 153.958C12.3427 152.819 12.2614 151.761 12.4241 150.785C12.5868 149.646 12.6682 148.588 12.6682 147.612C12.18 147.612 12.0173 147.775 12.18 148.1C12.3427 148.425 12.2614 148.588 11.9359 148.588C11.7732 146.798 11.5292 145.008 11.2037 143.218C10.8783 141.429 10.5529 139.639 10.2274 137.849C10.0647 137.198 10.1461 136.628 10.4715 136.14C10.7969 135.489 10.9596 134.757 10.9596 133.944V134.432C11.1224 134.106 10.7969 133.618 9.98335 132.967C9.33248 132.154 9.16977 131.584 9.4952 131.259C9.65792 130.608 9.82063 130.283 9.98335 130.283C10.1461 130.12 10.0647 129.794 9.73927 129.306C10.0647 128.981 10.1461 128.655 9.98335 128.33C9.65792 127.679 9.4952 127.272 9.4952 127.11C9.33248 126.459 9.08841 125.32 8.76298 123.693C8.43754 124.018 8.19347 124.099 8.03075 123.937C7.86804 123.611 8.19347 123.042 9.00705 122.228C9.00705 121.903 8.84433 121.74 8.5189 121.74C8.35619 121.577 8.35619 121.333 8.5189 121.008C7.86804 120.682 7.37989 120.194 7.05446 119.543C6.72902 118.242 6.72902 116.777 7.05446 115.15C7.37989 113.36 7.5426 111.733 7.5426 110.268C7.5426 110.106 7.46125 109.943 7.29853 109.78C7.29853 109.618 7.13581 109.048 6.81038 108.072C6.64766 107.095 6.40359 106.119 6.07816 105.143C5.75273 104.004 5.42729 103.028 5.10186 102.214C4.93914 101.238 5.0205 100.668 5.34593 100.505C5.18322 100.505 5.10186 100.424 5.10186 100.261C4.77643 99.4478 4.69507 98.7156 4.85779 98.0647C5.18322 97.4138 5.26458 96.6816 5.10186 95.868V96.1121C4.61371 94.6477 4.20692 93.1832 3.88149 91.7188C3.71877 90.2543 3.4747 88.8712 3.14927 87.5695C3.4747 86.9187 3.63741 86.3491 3.63741 85.861C2.82383 82.9321 2.17297 79.8405 1.68482 76.5862C1.35939 75.1217 1.11531 73.6573 0.952595 72.1928C0.952595 70.5657 0.789879 69.0199 0.464446 67.5554C0.627163 65.4401 0.708521 63.3248 0.708521 61.2095C0.871237 58.9314 1.11531 56.7348 1.44074 54.6195H1.19667C1.5221 54.1313 1.60346 53.8059 1.44074 53.6432C1.27803 53.4805 1.35939 53.155 1.68482 52.6669L1.92889 52.4228C1.76618 52.2601 1.68482 52.0974 1.68482 51.9346V51.6906C1.68482 51.6906 1.60346 51.6092 1.44074 51.4465C1.44074 51.1211 1.5221 50.7956 1.68482 50.4702C1.84753 49.9821 1.84753 49.5753 1.68482 49.2498V49.4939C1.5221 48.6803 1.44074 47.9481 1.44074 47.2972C1.60346 46.4837 1.60346 45.7514 1.44074 45.1006C1.92889 44.9379 2.17297 44.6124 2.17297 44.1243C1.84753 43.4734 1.60346 42.7412 1.44074 41.9276C1.44074 40.9513 1.44074 40.0564 1.44074 39.2428C1.27803 38.4292 1.27803 37.697 1.44074 37.0461C1.60346 36.2325 1.5221 35.419 1.19667 34.6054C1.5221 33.4664 1.76618 32.4087 1.92889 31.4324C2.09161 30.2934 2.41704 29.2357 2.90519 28.2594H2.66112C3.14927 27.934 3.31198 27.7713 3.14927 27.7713C2.98655 27.7713 3.23062 27.6086 3.88149 27.2831C4.20692 26.9577 4.28828 26.9577 4.12556 27.2831C4.12556 27.6086 4.28828 27.7713 4.61371 27.7713C4.93914 27.4459 5.10186 27.2018 5.10186 27.0391H4.85779C5.18322 26.7136 5.26458 26.5509 5.10186 26.5509C5.10186 26.3882 5.26458 26.1441 5.59001 25.8187C5.91544 25.4933 6.15952 25.5746 6.32223 26.0628C6.48495 26.3882 6.72902 26.4696 7.05446 26.3068C7.21717 26.6323 7.37989 26.9577 7.5426 27.2831C7.70532 27.4458 7.78668 27.8526 7.78668 28.5035C8.60026 28.6662 9.08841 28.9917 9.25113 29.4798C9.57656 29.8052 9.90199 30.1307 10.2274 30.4561C10.0647 31.107 10.1461 31.6765 10.4715 32.1646C10.9596 32.4901 11.2851 32.8155 11.4478 33.1409H11.6919C12.5055 35.2562 13.075 37.697 13.4004 40.4632C13.5631 40.6259 13.6445 40.9513 13.6445 41.4395C13.8072 41.4395 13.8072 41.1954 13.6445 40.7072C13.6445 40.8699 13.8885 40.7072 14.3767 40.2191C14.0513 40.2191 13.8885 39.975 13.8885 39.4869C13.8885 38.9987 14.0513 38.7546 14.3767 38.7546C14.214 38.2665 14.0513 37.8597 13.8885 37.5343C13.8885 37.0461 13.7258 37.0461 13.4004 37.5343C13.4004 36.558 13.7258 36.3952 14.3767 37.0461V36.802C14.214 36.1512 14.1326 35.5817 14.1326 35.0935C14.2953 34.6054 14.2953 34.0359 14.1326 33.385C14.2953 32.5714 14.458 31.8392 14.6208 31.1883C14.9462 30.3748 15.4343 29.5612 16.0852 28.7476H15.8411C16.1666 28.4221 16.2479 28.2594 16.0852 28.2594C16.0852 28.2594 16.3293 28.0967 16.8174 27.7713C17.1429 27.6086 17.3056 27.6899 17.3056 28.0154C17.3056 28.1781 17.4683 28.2594 17.7937 28.2594C17.7937 28.2594 17.8751 28.3408 18.0378 28.5035C18.3632 28.1781 18.526 27.7713 18.526 27.2831C18.6887 26.795 18.8514 26.3882 19.0141 26.0628C19.3395 25.7373 19.4209 25.5746 19.2582 25.5746C19.0955 25.5746 19.3395 25.4119 19.9904 25.0865C20.1531 24.761 20.2345 24.761 20.2345 25.0865C20.3972 25.4119 20.6413 25.5746 20.9667 25.5746C20.9667 25.9 21.0481 26.2255 21.2108 26.5509C21.5362 26.8763 21.7803 27.2018 21.943 27.5272C22.4311 27.6899 22.7566 27.934 22.9193 28.2594C23.2447 28.5849 23.5702 28.9103 23.8956 29.2357C23.5702 29.7239 23.5702 30.212 23.8956 30.7002C24.3837 31.0256 24.7905 31.351 25.116 31.6765H25.36C25.8482 32.8155 26.1736 33.9545 26.3363 35.0935C26.4991 36.0698 26.5804 37.0461 26.5804 38.0224C26.9058 38.3478 27.0686 38.6733 27.0686 38.9987C27.0686 39.3241 27.2313 39.6496 27.5567 39.975C27.394 39.8123 27.3126 39.8936 27.3126 40.2191C27.3126 40.3818 27.1499 40.3818 26.8245 40.2191V41.1954C26.6618 41.0327 26.5804 41.0327 26.5804 41.1954C26.5804 41.5208 26.5804 42.009 26.5804 42.6598C26.7431 43.3107 26.7431 43.8802 26.5804 44.3683H26.8245V44.6124C26.8245 44.7751 26.8245 44.8565 26.8245 44.8565V45.1006C26.8245 45.2633 26.7431 45.3446 26.5804 45.3446C26.7431 45.6701 26.9872 45.9955 27.3126 46.3209C27.3126 46.1582 27.394 46.0769 27.5567 46.0769C27.5567 46.0769 27.4753 46.1582 27.3126 46.3209H27.5567L27.0686 46.8091C27.394 46.4837 27.7194 46.3209 28.0449 46.3209C28.3703 47.2972 28.7771 48.0295 29.2652 48.5176C29.2652 48.1922 29.3466 47.9481 29.5093 47.7854C29.5093 48.1108 29.4279 48.3549 29.2652 48.5176C28.7771 49.3312 28.533 50.5516 28.533 52.1787C28.533 52.3414 28.6144 52.5042 28.7771 52.6669V52.9109C28.4516 52.9109 28.3703 52.9923 28.533 53.155C28.8584 53.3177 28.8584 53.4805 28.533 53.6432C28.533 53.8059 28.6957 53.8872 29.0212 53.8872C29.1839 54.2127 29.0212 54.5381 28.533 54.8635C28.2076 55.0263 28.2076 55.2703 28.533 55.5958H28.0449C28.0449 55.9212 28.1262 56.0839 28.2889 56.0839C28.4516 55.9212 28.533 56.0026 28.533 56.328C28.2076 56.6534 28.0449 56.9789 28.0449 57.3043C28.0449 58.606 27.9635 59.501 27.8008 59.9891C27.8008 60.3145 27.9635 60.64 28.2889 60.9654C28.6144 61.1281 28.7771 61.3722 28.7771 61.6976C28.9398 61.8603 29.1025 62.0231 29.2652 62.1858C29.4279 62.1858 29.4279 62.3485 29.2652 62.6739C29.1025 62.8366 28.7771 63.0807 28.2889 63.4061V64.6265C29.5907 65.2774 29.5907 66.1723 28.2889 67.3113C28.4516 68.1249 28.533 69.0199 28.533 69.9962C28.6957 70.8097 28.7771 71.7047 28.7771 72.681C28.7771 73.3318 28.533 73.9013 28.0449 74.3895C27.7194 74.7149 27.5567 75.2031 27.5567 75.8539C27.394 76.0167 27.6381 76.5048 28.2889 77.3184C28.9398 77.9693 29.1025 78.4574 28.7771 78.7828C28.6144 79.271 28.4516 79.5964 28.2889 79.7591C28.2889 79.7591 28.2889 80.0846 28.2889 80.7354C27.9635 81.0609 27.8821 81.3863 28.0449 81.7117C28.2076 81.8744 28.2889 82.0372 28.2889 82.1999C28.2889 82.3626 28.3703 82.6067 28.533 82.9321C28.6957 83.583 28.7771 84.722 28.7771 86.3491C29.1025 85.861 29.2652 85.7796 29.2652 86.1051C29.4279 86.4305 29.1025 87 28.2889 87.8136C28.2889 88.139 28.3703 88.3017 28.533 88.3017C28.6957 88.3017 28.6957 88.4645 28.533 88.7899L29.9975 90.2543C30.1602 91.5561 29.9975 93.0205 29.5093 94.6477C29.1839 96.1121 28.9398 97.6579 28.7771 99.2851V99.7732C28.6144 99.936 28.6144 100.505 28.7771 101.482C29.1025 102.295 29.3466 103.19 29.5093 104.167C29.8347 105.143 30.0788 106.119 30.2415 107.095C30.4042 107.909 30.3229 108.316 29.9975 108.316C30.1602 108.316 30.3229 108.397 30.4856 108.56C30.811 109.373 30.811 110.024 30.4856 110.513C30.1602 111.001 30.0788 111.652 30.2415 112.465C30.567 112.953 30.7297 113.685 30.7297 114.662C30.8924 114.174 30.9737 113.604 30.9737 112.953V114.418V115.394C30.9737 116.533 30.9737 117.509 30.9737 118.323C30.9737 119.136 31.0551 119.95 31.2178 120.764C30.7297 121.577 30.567 122.147 30.7297 122.472C30.7297 122.96 30.811 123.286 30.9737 123.448L31.706 124.181L32.1941 124.669L31.95 124.913H32.1941C31.8687 124.913 31.7873 124.994 31.95 125.157C32.1128 125.32 32.0314 125.401 31.706 125.401C31.706 125.401 31.7873 125.482 31.95 125.645C32.1128 125.808 32.0314 125.971 31.706 126.133C31.5433 126.133 31.6246 126.296 31.95 126.621H31.4619C31.4619 126.784 31.5433 126.865 31.706 126.865C31.8687 126.865 31.95 127.028 31.95 127.354C31.7873 127.354 31.706 127.435 31.706 127.598C31.5433 128.086 31.4619 128.737 31.4619 129.55C31.6246 130.201 31.706 130.852 31.706 131.503V132.723L31.95 132.967H32.1941C32.1941 132.805 32.2755 132.805 32.4382 132.967V133.211H32.1941H32.4382C32.2755 133.374 32.1128 133.456 31.95 133.456C32.1128 133.618 32.1128 133.781 31.95 133.944C31.95 134.106 32.0314 134.188 32.1941 134.188C32.1941 134.676 32.1128 134.92 31.95 134.92V136.628C31.95 136.466 31.95 136.384 31.95 136.384C32.1128 136.222 32.1941 136.059 32.1941 135.896C32.1941 135.896 32.3568 136.059 32.6823 136.384H31.95V136.873V136.628V137.117C32.1128 136.954 32.3568 136.954 32.6823 137.117L32.4382 137.361C32.6009 137.361 32.9263 137.686 33.4145 138.337C34.0654 138.825 34.3908 139.151 34.3908 139.313V139.557H34.6349C34.3094 139.557 34.2281 139.639 34.3908 139.801C34.5535 139.964 34.4721 140.046 34.1467 140.046C34.1467 140.208 34.2281 140.29 34.3908 140.29C34.5535 140.615 34.4721 140.859 34.1467 141.022C33.8213 141.022 33.8213 141.185 34.1467 141.51L33.4145 141.754C33.4145 141.917 33.4958 141.998 33.6586 141.998C33.984 141.835 34.0654 141.917 33.9026 142.242L33.1704 142.974C33.1704 143.788 33.0077 144.52 32.6823 145.171C32.5196 145.822 32.5196 146.554 32.6823 147.368C33.0077 147.205 33.0891 147.042 32.9263 146.88C32.7636 146.717 32.845 146.636 33.1704 146.636C33.0077 147.937 33.0077 149.239 33.1704 150.541C33.4958 151.842 33.5772 153.226 33.4145 154.69C33.4145 155.178 33.2518 155.666 32.9263 156.154C32.6009 156.48 32.3568 156.805 32.1941 157.131C32.1941 157.456 32.1941 157.7 32.1941 157.863C32.3568 157.863 32.4382 157.944 32.4382 158.107C32.9263 158.595 33.1704 159.002 33.1704 159.327C33.4958 160.141 33.5772 160.548 33.4145 160.548C33.4145 160.548 33.4958 160.629 33.6586 160.792C33.6586 161.117 33.5772 161.524 33.4145 162.012C33.4145 162.338 33.4958 162.663 33.6586 162.989V164.453C33.8213 164.453 33.9026 164.616 33.9026 164.941C33.9026 166.08 33.984 166.894 34.1467 167.382C34.1467 167.545 34.1467 167.626 34.1467 167.626C34.3094 167.626 34.3908 167.707 34.3908 167.87C34.5535 168.195 34.3094 169.009 33.6586 170.311C33.984 171.124 34.1467 171.938 34.1467 172.751C34.3094 173.402 34.4721 174.135 34.6349 174.948C34.6349 175.599 34.6349 176.25 34.6349 176.901C34.6349 177.389 34.7162 178.04 34.8789 178.853C35.2044 178.04 35.6112 177.389 36.0993 176.901C36.5875 176.25 36.9942 175.68 37.3197 175.192C36.8315 174.867 36.5061 174.948 36.3434 175.436C36.1807 175.924 36.018 176.087 35.8552 175.924C36.6688 174.623 37.401 173.24 38.0519 171.775C38.7028 170.311 39.435 168.846 40.2486 167.382C41.0622 165.755 41.713 164.29 42.2012 162.989C42.852 161.524 43.5843 160.141 44.3978 158.839C45.0487 157.7 45.7809 156.805 46.5945 156.154C47.4081 155.504 48.059 154.527 48.5471 153.226V153.714C48.7098 153.388 48.9539 152.412 49.2793 150.785C49.7675 149.158 50.1743 148.344 50.4997 148.344C51.1506 147.53 51.5574 147.124 51.7201 147.124C51.8828 146.961 52.1269 146.391 52.4523 145.415C53.1032 144.764 53.51 144.276 53.6727 143.951C53.9981 143.625 54.1608 143.218 54.1608 142.73C54.3235 142.242 54.4863 141.835 54.649 141.51C54.9744 140.696 55.3812 139.801 55.8693 138.825C56.5202 137.849 57.1711 136.873 57.8219 135.896C57.1711 136.384 56.927 136.303 57.0897 135.652C57.2524 135.001 57.9846 134.269 59.2864 133.456C59.6118 132.967 59.6932 132.642 59.5305 132.479C59.5305 132.154 59.7745 131.828 60.2627 131.503C60.2627 130.689 60.4254 129.632 60.7508 128.33C61.239 127.191 61.8898 126.133 62.7034 125.157C63.517 124.018 64.3306 122.879 65.1442 121.74C67.0968 119.299 68.968 117.021 70.7579 114.906C70.7579 114.58 70.7579 114.418 70.7579 114.418C70.9206 114.255 71.002 114.092 71.002 113.93C71.3274 113.767 71.8155 112.953 72.4664 111.489C73.28 109.862 74.0936 108.153 74.9071 106.363C75.8834 104.411 76.7784 102.702 77.592 101.238C78.4055 99.7732 78.9751 99.041 79.3005 99.041C79.3005 98.5529 79.3005 98.3088 79.3005 98.3088C80.1141 97.0071 80.8463 95.9494 81.4972 95.1358C82.148 94.3222 82.8802 93.2646 83.6938 91.9629V92.2069C84.9956 89.9289 86.3786 87.6509 87.8431 85.3728C89.4702 83.0948 90.9347 80.9795 92.2364 79.0269C92.5619 78.7015 92.9686 78.376 93.4568 78.0506C93.9449 77.7252 94.3517 77.1557 94.6772 76.3421C95.328 75.2031 95.9789 74.1454 96.6298 73.1691C97.2806 72.0301 98.0942 70.8097 99.0705 69.508C99.8841 68.2063 100.698 66.9045 101.511 65.6028C102.325 64.3011 103.138 62.9994 103.952 61.6976C104.44 61.2095 104.847 60.7213 105.172 60.2332C105.661 59.5823 106.067 58.9315 106.393 58.2806C106.718 57.7924 107.044 57.3043 107.369 56.8161C107.694 56.1653 108.264 55.6771 109.078 55.3517C109.891 54.3754 110.705 53.3177 111.518 52.1787C112.332 51.0397 113.227 49.9007 114.203 48.7617C115.342 46.9718 116.563 45.426 117.864 44.1243C119.166 42.6598 120.468 41.1954 121.769 39.7309C123.071 38.2665 124.373 36.8834 125.675 35.5817C127.139 34.1172 128.685 32.7341 130.312 31.4324H130.068C130.556 31.107 130.882 30.8629 131.044 30.7002C131.207 30.3747 131.532 30.0493 132.021 29.7239C132.346 28.2594 132.671 27.6899 132.997 28.0154C132.997 27.8526 132.997 27.7713 132.997 27.7713C133.322 27.2831 133.566 26.9577 133.729 26.795C134.055 26.4696 134.38 26.0628 134.705 25.5746C135.031 24.761 135.438 23.9475 135.926 23.1339C136.577 22.3203 137.065 21.5067 137.39 20.6931C138.204 20.3677 138.611 20.1236 138.611 19.9609C138.936 19.1473 139.343 18.2524 139.831 17.2761C140.482 16.1371 141.051 15.1608 141.539 14.3472C142.19 13.5336 142.76 12.72 143.248 11.9064C143.899 11.0929 144.55 10.1979 145.201 9.22163C146.177 8.24533 147.235 7.26904 148.374 6.29274C149.513 5.31644 150.814 4.4215 152.279 3.60791H152.035C152.36 3.4452 152.523 3.36384 152.523 3.36384C152.523 3.20113 152.848 3.03841 153.499 2.87569C153.825 2.71297 153.906 2.87569 153.743 3.36384C153.58 3.68927 153.662 3.85199 153.987 3.85199C153.662 4.34014 153.499 4.82829 153.499 5.31644C153.499 5.64187 153.336 6.04866 153.011 6.53681ZM13.8885 42.1717C13.8885 42.3344 13.8885 42.4158 13.8885 42.4158C14.0513 42.4158 14.1326 42.4971 14.1326 42.6598V42.4158L13.8885 42.1717ZM13.8885 44.1243C13.8885 44.1243 13.9699 44.2056 14.1326 44.3683V42.6598C13.9699 42.6598 13.8885 42.8225 13.8885 43.148C13.8885 43.3107 13.7258 43.3107 13.4004 43.148L13.8885 44.3683V44.1243ZM14.1326 44.8565C14.1326 44.6938 14.214 44.6124 14.3767 44.6124H14.1326C14.1326 44.6124 14.0513 44.5311 13.8885 44.3683V44.6124C13.8885 44.6124 13.9699 44.6938 14.1326 44.8565ZM17.0615 167.382C17.2242 167.382 17.3056 167.3 17.3056 167.138C17.1429 167.138 17.0615 167.056 17.0615 166.894C17.0615 166.731 16.9801 166.65 16.8174 166.65H16.5734C16.5734 166.487 16.492 166.406 16.3293 166.406C16.3293 166.243 16.3293 166.08 16.3293 165.917H16.5734L16.3293 165.673V165.917C16.1666 165.917 16.0852 166.08 16.0852 166.406C16.7361 167.056 17.0615 167.3 17.0615 167.138V167.382ZM23.4074 206.19L23.1634 206.434H23.4074C23.2447 206.434 23.082 206.596 22.9193 206.922C22.9193 207.085 22.8379 207.247 22.6752 207.41C22.3498 208.712 22.2684 209.281 22.4311 209.119C22.4311 209.281 22.3498 209.444 22.1871 209.607C22.3498 209.607 22.4311 209.525 22.4311 209.363V209.119L22.9193 208.874V208.142C22.5939 208.142 22.4311 208.142 22.4311 208.142C22.7566 207.98 22.9193 207.735 22.9193 207.41C23.082 207.085 23.2447 206.841 23.4074 206.678V206.922V206.19ZM23.4074 208.874C23.4074 209.037 23.5702 209.119 23.8956 209.119C23.7329 209.119 23.5702 209.037 23.4074 208.874ZM26.0923 210.339H25.8482C25.8482 209.851 25.9295 209.607 26.0923 209.607V209.363H25.8482L25.36 209.607V210.095V210.339H26.0923ZM26.0923 210.827V210.583V210.339C25.9295 210.339 25.8482 210.42 25.8482 210.583C25.8482 210.746 25.9295 210.827 26.0923 210.827C26.0923 210.827 26.0923 210.908 26.0923 211.071V210.827ZM26.8245 210.583C26.8245 210.746 26.9058 210.827 27.0686 210.827L26.8245 210.583ZM31.706 133.211C31.8687 133.211 31.95 133.13 31.95 132.967H31.706V133.211ZM28.7771 211.315V211.559V211.315ZM29.7534 214.244V214V213.756C29.4279 213.756 29.2652 213.756 29.2652 213.756C29.4279 213.756 29.5093 213.593 29.5093 213.268C29.672 213.268 29.7534 213.349 29.7534 213.512C29.7534 213.349 29.672 213.186 29.5093 213.024V213.268C29.3466 213.105 29.2652 213.105 29.2652 213.268C29.2652 213.431 29.1839 213.512 29.0212 213.512C29.3466 214.163 29.5907 214.407 29.7534 214.244L29.5093 214.488L29.7534 214.244ZM30.7297 214.488C30.7297 214.488 30.7297 214.57 30.7297 214.732L30.9737 214.488H30.7297ZM44.1538 202.529L43.9097 202.773V203.749C43.9097 203.749 43.9911 203.668 44.1538 203.505V202.529ZM44.3978 203.261C44.7233 202.935 44.9673 202.61 45.1301 202.284C45.4555 201.796 45.6996 201.39 45.8623 201.064L45.6182 201.308C45.6182 201.145 45.5369 201.064 45.3741 201.064V201.308C45.2114 201.308 45.1301 201.39 45.1301 201.552C45.1301 201.878 45.0487 202.122 44.886 202.284C44.886 202.447 44.7233 202.529 44.3978 202.529V203.261ZM95.1653 116.614C95.4908 116.126 95.8162 115.719 96.1416 115.394C96.467 115.069 96.7925 114.743 97.1179 114.418L96.6298 114.662C96.467 114.662 96.223 114.499 95.8975 114.174C95.8975 114.336 95.8162 114.499 95.6535 114.662C95.6535 114.662 95.6535 114.743 95.6535 114.906C95.6535 115.231 95.5721 115.475 95.4094 115.638C95.4094 115.638 95.4094 115.719 95.4094 115.882C95.4094 116.045 95.328 116.208 95.1653 116.37C95.1653 116.37 95.1653 116.452 95.1653 116.614ZM16.5734 165.917H16.3293H16.5734ZM15.5971 166.161H15.353H15.5971ZM15.1089 165.917C15.2716 165.917 15.353 165.999 15.353 166.161L15.1089 165.917ZM142.277 69.0199V68.7758V69.0199ZM143.01 69.2639H142.766H143.01ZM142.277 68.7758V68.5317V68.7758ZM152.284 123.204V123.448V123.204ZM174.251 117.347V117.591V117.347ZM88.581 242.069V242.313V242.069ZM255.284 18.0083C255.447 18.0083 255.365 18.0083 255.04 18.0083C254.877 18.0083 254.877 18.0897 255.04 18.2524C254.714 18.2524 254.47 18.3337 254.308 18.4965C254.145 18.4965 253.901 18.4965 253.575 18.4965C253.575 18.6592 253.169 18.9033 252.355 19.2287C252.03 19.2287 251.541 19.3914 250.891 19.7168C250.728 19.7168 250.646 19.7982 250.646 19.9609C250.646 19.9609 250.565 19.9609 250.402 19.9609L249.914 20.4491C249.914 20.6118 249.833 20.7745 249.67 20.9372C249.67 21.2626 249.589 21.4253 249.426 21.4253C249.426 21.4253 249.345 21.5881 249.182 21.9135C248.857 21.9135 248.694 22.0762 248.694 22.4016C248.531 22.5644 248.368 22.6457 248.206 22.6457C248.206 22.6457 248.124 22.7271 247.962 22.8898H248.206C248.531 22.8898 248.694 22.8898 248.694 22.8898C248.857 22.8898 248.857 22.9711 248.694 23.1339C248.531 23.1339 248.531 23.2152 248.694 23.3779C248.368 23.3779 248.206 23.4593 248.206 23.622C248.206 23.622 248.043 23.622 247.718 23.622C247.718 23.7847 247.473 24.1102 246.985 24.5983C246.66 24.5983 246.497 24.6797 246.497 24.8424C246.497 25.0051 246.334 25.0865 246.009 25.0865C245.521 25.5746 245.033 25.8187 244.545 25.8187C244.219 25.9814 243.975 26.1441 243.812 26.3068C243.812 26.3068 243.65 26.3882 243.324 26.5509C243.161 26.7136 242.999 26.795 242.836 26.795C242.836 26.795 242.755 26.8763 242.592 27.0391H242.348H241.86C241.209 27.3645 240.802 27.6086 240.639 27.7713H240.395H240.151V28.0154C239.989 28.0154 239.907 28.0967 239.907 28.2594H239.663C239.826 28.2594 239.907 28.3408 239.907 28.5035L239.175 29.2357H239.419H239.175C239.175 29.2357 238.687 29.3984 237.71 29.7239C237.06 30.0493 236.653 30.212 236.49 30.212C235.026 30.8629 234.131 31.5138 233.805 32.1646C233.643 32.1646 233.561 32.3273 233.561 32.6528H233.073C232.748 32.6528 232.585 32.5714 232.585 32.4087C232.585 33.385 231.934 33.8731 230.632 33.8731C230.958 33.8731 231.283 33.7104 231.609 33.385C231.446 33.385 231.365 33.385 231.365 33.385C231.365 33.385 231.283 33.4664 231.12 33.6291C231.12 33.7918 231.039 33.7918 230.876 33.6291C230.714 33.6291 230.632 33.7104 230.632 33.8731H230.388C230.063 34.1986 229.819 34.4426 229.656 34.6054C229.493 34.6054 229.249 34.7681 228.924 35.0935C228.761 35.419 228.598 35.663 228.436 35.8257C228.273 35.8257 228.11 35.9071 227.948 36.0698C227.948 35.9071 227.866 35.9071 227.703 36.0698C227.541 36.2325 227.459 36.2325 227.459 36.0698L226.971 36.558H226.727C226.076 37.2088 225.425 37.6156 224.775 37.7783L225.019 38.0224H224.53C224.53 38.1851 224.449 38.3478 224.286 38.5106C224.124 38.5106 224.042 38.5919 224.042 38.7546H223.798V38.9987H224.042L223.31 39.7309C223.147 39.8936 222.985 39.975 222.822 39.975C222.822 40.1377 222.741 40.2191 222.578 40.2191C222.741 40.2191 222.903 40.1377 223.066 39.975C222.903 40.1377 222.741 40.2191 222.578 40.2191V40.4632C222.415 40.4632 222.252 40.5445 222.09 40.7072C222.09 40.7072 222.008 40.7072 221.846 40.7072C221.683 40.8699 221.52 41.0327 221.358 41.1954C221.195 41.1954 221.032 41.2767 220.869 41.4395C220.381 41.7649 219.812 42.0903 219.161 42.4158C218.673 42.7412 218.266 43.0666 217.94 43.392C217.778 43.392 217.696 43.392 217.696 43.392C217.696 43.2293 217.615 43.148 217.452 43.148C216.801 43.7988 216.151 44.4497 215.5 45.1006C214.849 45.5887 214.198 46.0769 213.547 46.565C213.222 46.8904 212.978 47.1345 212.815 47.2972C212.652 47.2972 212.489 47.46 212.327 47.7854C212.489 47.6227 212.408 47.6227 212.083 47.7854C211.92 47.9481 211.839 47.9481 211.839 47.7854L211.35 48.2735C211.188 48.2735 211.106 48.3549 211.106 48.5176C210.781 48.843 210.374 49.1685 209.886 49.4939C209.398 49.6566 208.991 49.9007 208.666 50.2261H208.91C208.747 50.3889 208.584 50.4702 208.422 50.4702C208.259 50.6329 208.015 50.7956 207.689 50.9584C207.527 51.1211 207.445 51.2838 207.445 51.4465L206.957 51.6906H207.445L205.981 53.155C206.144 53.155 206.306 53.0737 206.469 52.9109C206.469 52.9109 206.306 52.9923 205.981 53.155C205.33 53.4805 204.435 54.05 203.296 54.8635C202.157 55.6771 201.343 56.2466 200.855 56.5721C199.716 57.2229 198.659 57.8738 197.682 58.5247C196.869 59.0128 196.055 59.6637 195.242 60.4773L194.509 61.2095C194.672 61.2095 194.509 61.3722 194.021 61.6976C193.533 61.8603 193.126 61.779 192.801 61.4536C192.638 62.4299 191.987 63.1621 190.848 63.6502H190.604C190.604 63.6502 190.523 63.6502 190.36 63.6502V63.8943C190.36 63.8943 190.197 63.9757 189.872 64.1384V63.8943C189.872 63.8943 189.791 63.9757 189.628 64.1384H189.384L187.919 64.8706C187.919 64.8706 188.082 64.8706 188.407 64.8706C187.919 65.196 187.513 65.5215 187.187 65.8469C186.862 66.1723 186.455 66.4978 185.967 66.8232C185.804 66.9859 185.641 67.0673 185.479 67.0673C185.316 66.9045 185.153 66.9045 184.99 67.0673C184.828 67.23 184.746 67.3927 184.746 67.5554C184.746 67.7181 184.665 67.7995 184.502 67.7995C184.34 67.7995 184.177 67.8808 184.014 68.0436H183.77C183.77 68.2063 183.689 68.2876 183.526 68.2876C183.526 68.2876 183.526 68.369 183.526 68.5317C183.363 68.5317 183.119 68.6944 182.794 69.0199C182.956 69.0199 183.038 69.1012 183.038 69.2639C183.038 69.2639 182.875 69.2639 182.55 69.2639C182.387 69.2639 182.306 69.3453 182.306 69.508C182.306 69.508 182.224 69.6707 182.062 69.9962C181.736 70.3216 181.329 70.5657 180.841 70.7284C180.516 70.7284 180.19 70.8911 179.865 71.2165C179.865 71.2165 179.539 71.542 178.889 72.1928C178.563 72.5183 178.319 72.8437 178.156 73.1691H177.912L177.18 73.9014C176.204 74.5522 175.553 75.0404 175.227 75.3658C175.227 75.3658 175.146 75.4472 174.983 75.6099C174.658 75.9353 174.332 76.2607 174.007 76.5862C173.682 76.7489 173.356 76.993 173.031 77.3184L170.834 78.7828C169.858 79.5964 168.8 80.0846 167.661 80.2473C167.336 80.5727 167.173 80.8168 167.173 80.9795L166.929 81.2236C166.929 81.2236 166.929 81.3049 166.929 81.4677C166.603 81.6304 166.278 81.8744 165.953 82.1999C165.627 82.688 165.139 83.2575 164.488 83.9084C164.488 84.0711 164.57 84.1525 164.732 84.1525H164.488H164.732C164.57 84.1525 164.488 84.2338 164.488 84.3965C164.651 84.3965 164.651 84.3965 164.488 84.3965C164.488 84.5593 164.407 84.6406 164.244 84.6406L164 84.8847C164 85.0474 163.837 85.2915 163.512 85.6169H163.756C163.593 85.9423 163.512 86.1864 163.512 86.3491C163.512 86.5119 163.431 86.7559 163.268 87.0814C163.268 87.0814 163.105 87.2441 162.78 87.5695V87.8136V88.0577V88.3017H162.536V88.5458V89.034C162.698 89.034 162.78 89.1153 162.78 89.278C162.78 89.278 162.617 89.278 162.291 89.278C162.291 89.278 162.291 89.3594 162.291 89.5221C162.454 89.5221 162.536 89.6035 162.536 89.7662C162.536 90.0916 162.454 90.2543 162.291 90.2543C162.617 90.2543 162.861 90.173 163.024 90.0103C162.861 90.173 162.861 90.2543 163.024 90.2543C163.349 90.0916 163.512 90.0916 163.512 90.2543L164.244 89.7662H164.488H165.22C165.383 89.6035 165.627 89.5221 165.953 89.5221C166.278 89.3594 166.522 89.278 166.685 89.278C166.848 89.278 167.092 89.1967 167.417 89.034H167.905H168.149C168.149 89.034 168.312 88.9526 168.637 88.7899C168.8 88.7899 168.963 88.7085 169.126 88.5458H169.614C169.451 88.3831 169.288 88.3017 169.126 88.3017L171.322 87.5695H170.59H171.322C171.485 87.4068 171.973 87.3254 172.787 87.3254C173.112 87.3254 173.356 87.3254 173.519 87.3254C173.844 87.1627 174.17 87.0814 174.495 87.0814H176.448C176.773 87.0814 177.017 87.0814 177.18 87.0814C177.343 86.9186 177.505 86.8373 177.668 86.8373H181.817H182.062C182.062 86.5119 182.224 86.5119 182.55 86.8373C183.038 86.8373 183.363 86.7559 183.526 86.5932C183.851 86.4305 184.34 86.3491 184.99 86.3491H185.723C185.723 86.3491 186.048 86.3491 186.699 86.3491H186.943H187.431C187.594 86.3491 187.675 86.3491 187.675 86.3491C187.675 86.1864 187.757 86.1051 187.919 86.1051C188.245 86.1051 188.407 85.9423 188.407 85.6169C189.221 85.6169 189.872 85.5356 190.36 85.3728C191.174 85.3728 191.743 85.2915 192.069 85.1288H192.313C192.313 85.1288 192.964 84.9661 194.265 84.6406C194.591 84.3152 194.916 84.1525 195.242 84.1525C195.73 83.9898 195.974 83.9898 195.974 84.1525V83.9084C196.787 83.9084 197.357 83.827 197.682 83.6643C199.309 83.3389 200.448 83.0948 201.099 82.9321C201.262 82.9321 201.343 83.0135 201.343 83.1762C201.506 83.1762 201.669 83.1762 201.832 83.1762C202.482 82.8507 203.052 82.688 203.54 82.688C203.866 82.5253 204.191 82.444 204.516 82.444C204.842 82.444 205.167 82.3626 205.493 82.1999H206.469C206.794 82.1999 207.12 82.1185 207.445 81.9558H209.154C209.805 81.7931 210.7 81.7117 211.839 81.7117C212.164 81.7117 212.571 81.7931 213.059 81.9558C213.547 81.9558 213.954 81.9558 214.279 81.9558C214.605 81.9558 214.93 82.0372 215.256 82.1999C215.418 82.1999 215.337 82.1999 215.012 82.1999C214.849 82.1999 214.767 82.2812 214.767 82.444C214.442 82.444 214.198 82.5253 214.035 82.688C213.873 82.688 213.628 82.688 213.303 82.688C213.14 83.0135 212.896 83.1762 212.571 83.1762C212.408 83.1762 212.164 83.2575 211.839 83.4202C211.35 83.4202 210.944 83.5016 210.618 83.6643C210.293 83.6643 209.967 83.7457 209.642 83.9084H209.886C208.584 84.2338 207.608 84.3965 206.957 84.3965C206.469 84.5593 205.981 84.722 205.493 84.8847C205.167 84.8847 204.76 84.8847 204.272 84.8847C203.947 85.0474 203.703 85.1288 203.54 85.1288C203.377 85.1288 203.133 85.2101 202.808 85.3728C202.971 85.3728 202.889 85.3728 202.564 85.3728C202.401 85.3728 202.401 85.2915 202.564 85.1288L201.832 85.3728C201.994 85.3728 202.157 85.4542 202.32 85.6169H203.052C203.54 85.1288 204.272 85.0474 205.249 85.3728C206.062 85.2101 206.957 85.1288 207.933 85.1288C208.91 84.9661 209.886 84.8033 210.862 84.6406C211.025 84.6406 211.106 84.6406 211.106 84.6406C211.269 84.4779 211.432 84.3965 211.595 84.3965C211.757 84.3965 212.001 84.3965 212.327 84.3965C212.652 84.2338 213.222 84.0711 214.035 83.9084C214.686 83.7457 215.418 83.583 216.232 83.4202C217.208 83.2575 218.185 83.2575 219.161 83.4202C220.137 83.583 221.113 83.827 222.09 84.1525C223.066 84.3152 223.88 84.5593 224.53 84.8847C225.995 85.6983 226.727 86.2678 226.727 86.5932C226.89 86.5932 226.971 86.6746 226.971 86.8373C227.134 86.8373 227.297 86.8373 227.459 86.8373L228.68 88.0577C229.005 88.3831 229.331 88.8712 229.656 89.5221C229.656 89.5221 229.737 89.6035 229.9 89.7662C230.551 90.0916 231.12 90.3357 231.609 90.4984C231.934 90.8238 232.259 91.1493 232.585 91.4747C233.073 91.6374 233.48 91.8815 233.805 92.2069C233.643 92.0442 233.561 91.8815 233.561 91.7188C233.561 91.7188 233.48 91.6374 233.317 91.4747C233.317 91.1493 233.236 90.9052 233.073 90.7425C232.748 90.4171 232.504 90.173 232.341 90.0103C232.178 89.6848 231.934 89.3594 231.609 89.034V88.5458C231.283 88.2204 230.632 87.7322 229.656 87.0814C229.005 86.4305 228.436 85.9423 227.948 85.6169C226.971 84.9661 226.158 84.3152 225.507 83.6643C225.344 83.5016 225.263 83.5016 225.263 83.6643C225.263 83.6643 225.181 83.583 225.019 83.4202C225.019 83.2575 225.1 83.2575 225.263 83.4202C225.425 83.4202 225.425 83.3389 225.263 83.1762C225.751 83.1762 226.158 83.2575 226.483 83.4202C226.483 83.2575 226.646 83.1762 226.971 83.1762C227.134 83.1762 227.215 83.2575 227.215 83.4202C227.378 83.4202 227.541 83.4202 227.703 83.4202C227.866 83.4202 228.029 83.5016 228.192 83.6643C228.517 83.6643 228.761 83.7457 228.924 83.9084C230.388 84.5593 231.446 85.2915 232.097 86.1051C232.422 86.1051 232.585 86.1864 232.585 86.3491C232.748 86.5119 232.91 86.5932 233.073 86.5932C232.91 86.5932 232.91 86.6746 233.073 86.8373C233.236 86.8373 233.236 86.8373 233.073 86.8373L233.561 87.3254V87.5695C234.049 88.0577 234.375 88.4645 234.538 88.7899C234.7 88.7899 234.782 88.8712 234.782 89.034C234.782 89.034 234.7 89.034 234.538 89.034L235.026 89.5221L235.27 89.7662L235.514 90.0103V89.5221L236.002 90.0103C236.165 90.173 236.246 90.3357 236.246 90.4984C236.246 90.4984 236.327 90.5798 236.49 90.7425V90.2543V90.4984C236.653 90.8238 236.897 91.4747 237.222 92.451C237.222 92.6137 237.222 92.7764 237.222 92.9392C237.385 93.1019 237.466 93.2646 237.466 93.4273C237.466 93.7527 237.466 93.9968 237.466 94.1595C237.629 94.1595 237.71 94.2409 237.71 94.4036C237.873 95.2172 237.955 95.9494 237.955 96.6003C237.955 97.2511 238.117 97.902 238.443 98.5529C238.443 98.5529 238.524 98.7156 238.687 99.041C238.85 99.041 238.85 99.2037 238.687 99.5292C238.687 99.6919 238.605 99.8546 238.443 100.017V100.505C238.605 100.668 238.687 100.994 238.687 101.482V101.97C238.687 102.458 238.687 102.946 238.687 103.434C238.85 103.923 238.931 104.329 238.931 104.655C238.931 106.445 238.768 108.153 238.443 109.78C238.117 111.082 237.955 111.733 237.955 111.733C237.955 111.896 237.873 112.058 237.71 112.221C237.71 112.384 237.71 112.546 237.71 112.709V113.197C237.71 113.523 237.629 113.767 237.466 113.93C237.466 114.092 237.466 114.336 237.466 114.662V114.906V115.15H237.71C237.548 115.15 237.466 115.231 237.466 115.394C237.629 115.557 237.629 115.638 237.466 115.638C237.466 115.638 237.548 115.719 237.71 115.882C237.71 116.208 237.629 116.452 237.466 116.614C237.466 116.614 237.466 116.696 237.466 116.858V117.347C237.466 117.672 237.385 117.916 237.222 118.079C237.222 118.892 237.06 119.95 236.734 121.252C236.897 121.252 236.897 121.252 236.734 121.252C236.734 121.089 236.816 121.008 236.978 121.008C236.653 122.309 236.49 123.286 236.49 123.937C236.327 124.262 236.246 124.506 236.246 124.669C236.246 124.832 236.165 125.076 236.002 125.401C236.002 125.726 235.921 125.971 235.758 126.133C235.758 126.459 235.677 126.703 235.514 126.865C235.514 127.191 235.432 127.516 235.27 127.842C235.107 128.005 234.944 128.249 234.782 128.574V128.33V129.306C234.619 129.469 234.538 129.632 234.538 129.794V130.038C234.375 130.364 234.293 130.527 234.293 130.527C234.293 130.527 234.212 130.689 234.049 131.015C234.049 131.177 233.968 131.259 233.805 131.259C233.805 131.259 233.805 131.34 233.805 131.503V131.991C233.805 132.154 233.724 132.398 233.561 132.723C233.561 132.886 233.561 133.13 233.561 133.456C233.561 134.106 233.399 134.92 233.073 135.896C233.073 136.222 232.992 136.466 232.829 136.628C232.666 136.791 232.585 137.035 232.585 137.361V138.093C232.748 137.767 232.829 137.523 232.829 137.361C232.829 137.198 232.91 137.035 233.073 136.873C233.073 136.71 233.073 136.628 233.073 136.628C233.236 136.628 233.317 136.547 233.317 136.384C233.317 135.896 233.399 135.571 233.561 135.408C233.561 134.757 233.643 134.35 233.805 134.188C234.131 133.211 234.293 132.479 234.293 131.991C234.456 131.666 234.538 131.422 234.538 131.259C234.538 131.096 234.619 130.852 234.782 130.527L235.514 129.062C235.677 128.899 235.677 128.818 235.514 128.818C235.514 128.818 235.595 128.737 235.758 128.574C235.921 128.411 235.921 128.411 235.758 128.574C235.758 128.737 235.839 128.818 236.002 128.818C236.002 129.144 236.002 129.306 236.002 129.306C236.165 129.306 236.165 129.469 236.002 129.794C236.165 129.957 236.246 130.12 236.246 130.283C236.246 130.445 236.327 130.689 236.49 131.015C236.327 131.34 236.246 131.584 236.246 131.747C236.409 131.747 236.49 131.91 236.49 132.235C236.49 132.561 236.409 132.886 236.246 133.211C236.246 133.537 236.246 133.862 236.246 134.188C236.246 134.35 236.083 134.92 235.758 135.896C235.758 135.896 235.758 136.222 235.758 136.873C235.758 136.71 235.677 136.71 235.514 136.873C235.514 137.035 235.514 137.035 235.514 136.873V137.361C235.351 137.361 235.27 137.442 235.27 137.605C235.107 137.767 235.026 138.012 235.026 138.337C235.026 138.5 234.944 138.744 234.782 139.069C234.782 139.069 234.7 139.151 234.538 139.313V140.046V140.29C234.538 140.29 234.619 140.208 234.782 140.046V141.51C234.782 141.347 234.863 141.266 235.026 141.266C234.863 141.266 234.782 141.347 234.782 141.51C234.619 141.673 234.456 141.917 234.293 142.242C234.293 142.405 234.131 142.649 233.805 142.974C233.48 143.788 233.236 144.276 233.073 144.439C232.748 145.09 232.422 145.659 232.097 146.147C231.771 146.636 231.527 147.205 231.365 147.856V148.588L231.12 148.832C230.795 149.158 230.551 149.239 230.388 149.076C230.714 149.727 230.632 150.215 230.144 150.541C229.819 150.866 229.493 151.192 229.168 151.517C229.331 151.192 229.575 150.866 229.9 150.541H229.656H229.412C229.412 150.541 229.412 150.703 229.412 151.029C229.412 151.029 229.331 151.11 229.168 151.273C229.168 151.11 229.087 151.029 228.924 151.029L228.68 151.273L228.924 151.517H228.68C228.68 151.354 228.598 151.354 228.436 151.517H228.192L228.436 151.761H228.192C228.192 151.924 228.11 152.087 227.948 152.249V152.493C227.785 152.819 227.622 153.144 227.459 153.47C227.297 153.632 227.134 153.876 226.971 154.202H227.215C226.89 154.527 226.646 154.853 226.483 155.178C226.483 155.341 226.402 155.585 226.239 155.91C226.076 156.073 225.995 156.236 225.995 156.398C225.995 156.561 225.914 156.724 225.751 156.887L225.019 158.351C225.344 158.188 225.425 158.188 225.263 158.351C225.263 158.514 225.1 158.758 224.775 159.083C224.612 159.246 224.53 159.327 224.53 159.327C224.693 159.327 224.693 159.409 224.53 159.571V160.548C224.205 161.199 223.798 161.849 223.31 162.5C222.822 162.989 222.415 163.558 222.09 164.209C222.09 164.372 222.008 164.453 221.846 164.453C221.846 164.616 221.764 164.86 221.602 165.185L220.869 166.65C220.869 166.812 220.788 166.975 220.625 167.138C220.625 167.138 220.625 167.219 220.625 167.382C220.463 167.545 220.381 167.789 220.381 168.114L219.893 168.602V168.846C219.242 169.497 218.835 170.067 218.673 170.555V170.311C217.859 171.612 217.046 172.833 216.232 173.972C215.907 174.297 215.744 174.46 215.744 174.46C215.093 175.436 214.605 176.087 214.279 176.413C213.628 177.389 213.14 178.04 212.815 178.365C212.489 178.691 212.327 178.935 212.327 179.097V179.586C212.164 179.586 212.083 179.667 212.083 179.83C212.083 179.83 212.001 179.83 211.839 179.83V180.074C211.839 180.074 211.757 180.155 211.595 180.318H211.35C211.35 180.318 211.35 180.399 211.35 180.562H211.106C210.944 180.887 210.7 181.131 210.374 181.294C210.211 181.294 210.049 181.457 209.886 181.782C210.049 181.945 210.13 181.945 210.13 181.782C209.805 182.108 209.479 182.514 209.154 183.003C208.991 183.491 208.747 183.898 208.422 184.223C208.259 184.386 208.096 184.467 207.933 184.467C207.771 184.467 207.608 184.548 207.445 184.711C207.283 184.874 207.201 185.037 207.201 185.199V185.443L206.713 185.932H206.469C206.469 186.257 206.388 186.42 206.225 186.42C206.225 186.582 206.062 186.826 205.737 187.152C205.899 187.152 205.981 187.233 205.981 187.396C205.981 187.396 205.818 187.396 205.493 187.396C205.33 187.559 205.249 187.64 205.249 187.64C205.411 187.64 205.411 187.721 205.249 187.884V188.372C204.923 188.698 204.598 189.023 204.272 189.349C203.947 189.511 203.621 189.755 203.296 190.081V190.325C203.133 190.325 202.889 190.732 202.564 191.545C202.401 191.871 202.157 192.196 201.832 192.522C201.669 192.684 201.506 192.847 201.343 193.01C201.181 193.01 201.018 193.172 200.855 193.498V193.254C200.204 194.23 199.716 194.881 199.391 195.206C199.391 195.369 199.228 195.45 198.903 195.45C198.74 195.776 198.496 196.183 198.17 196.671C198.008 196.996 197.764 197.322 197.438 197.647C197.113 197.973 196.787 198.298 196.462 198.623C196.299 198.949 196.055 199.274 195.73 199.6C194.591 200.739 193.696 201.552 193.045 202.04C192.882 202.04 192.801 202.122 192.801 202.284C192.801 202.284 192.719 202.284 192.557 202.284C192.231 202.284 192.15 202.203 192.313 202.04C192.475 201.878 192.475 201.796 192.313 201.796C192.475 201.634 192.557 201.552 192.557 201.552C192.557 201.39 192.719 201.145 193.045 200.82C192.882 200.657 192.964 200.251 193.289 199.6C193.452 199.6 193.696 199.193 194.021 198.379C194.347 198.054 194.509 197.728 194.509 197.403C194.184 197.728 194.021 197.973 194.021 198.135C193.696 198.135 193.533 198.217 193.533 198.379C192.882 199.356 192.394 200.006 192.069 200.332C191.743 200.657 191.418 200.983 191.092 201.308C190.93 201.471 190.685 201.715 190.36 202.04C189.872 202.529 188.977 203.261 187.675 204.237C187.675 204.237 187.513 204.318 187.187 204.481C187.024 204.481 187.024 204.4 187.187 204.237C187.35 204.074 187.35 203.993 187.187 203.993C187.187 203.993 187.35 203.668 187.675 203.017C187.675 202.854 187.675 202.691 187.675 202.529C187.838 202.366 187.919 202.203 187.919 202.04C188.245 201.715 188.407 201.471 188.407 201.308C188.407 201.145 188.489 200.983 188.652 200.82C188.652 200.657 188.733 200.576 188.896 200.576C188.57 200.739 188.326 200.901 188.163 201.064C188.163 201.064 188.001 201.145 187.675 201.308H187.919C188.082 201.308 187.919 201.552 187.431 202.04C187.268 202.203 187.187 202.366 187.187 202.529C186.862 202.854 186.699 203.017 186.699 203.017C186.699 202.854 186.618 202.935 186.455 203.261H186.211C186.048 203.424 185.967 203.668 185.967 203.993C185.641 204.156 185.316 204.563 184.99 205.213C185.153 205.051 185.153 205.051 184.99 205.213C184.99 205.376 184.828 205.539 184.502 205.702C184.34 205.702 184.258 205.783 184.258 205.946C184.095 206.108 184.014 206.271 184.014 206.434C184.014 206.434 183.933 206.515 183.77 206.678C183.607 207.003 183.201 207.491 182.55 208.142C182.224 208.468 181.899 208.712 181.573 208.874C181.411 208.874 181.167 209.037 180.841 209.363V209.607C180.678 209.607 180.434 209.851 180.109 210.339C179.946 210.664 179.702 210.99 179.377 211.315C179.377 211.478 179.295 211.559 179.133 211.559C179.133 211.559 179.133 211.641 179.133 211.803C178.807 212.129 178.644 212.292 178.644 212.292L178.156 212.78C177.831 213.105 177.587 213.349 177.424 213.512C177.261 213.512 177.017 213.675 176.692 214C176.529 214.325 176.122 214.814 175.472 215.465C175.146 215.79 174.902 215.953 174.739 215.953C174.577 216.115 174.332 216.359 174.007 216.685C173.682 216.685 173.519 216.848 173.519 217.173C173.193 217.336 172.705 217.743 172.054 218.393C171.729 218.719 171.404 218.963 171.078 219.126C170.915 219.288 170.671 219.532 170.346 219.858L169.614 220.59C169.288 220.916 169.044 221.078 168.882 221.078C168.231 221.729 167.742 222.136 167.417 222.299C166.766 222.787 165.953 223.356 164.976 224.007C164.325 224.333 163.919 224.577 163.756 224.739C163.431 224.902 163.186 224.983 163.024 224.983C162.861 224.983 162.698 225.065 162.536 225.227C162.536 225.227 162.454 225.309 162.291 225.472H162.047L161.559 225.96C161.397 226.122 161.234 226.285 161.071 226.448C161.071 226.611 160.99 226.773 160.827 226.936C160.502 227.261 160.339 227.506 160.339 227.668C160.176 227.668 160.013 227.75 159.851 227.912L159.363 228.4C159.2 228.4 159.119 228.482 159.119 228.645C158.468 228.97 157.98 229.295 157.654 229.621L156.922 230.353L156.434 230.841C156.108 231.004 155.783 231.411 155.457 232.062C154.969 232.55 154.481 232.957 153.993 233.282C153.505 233.77 152.935 234.258 152.284 234.746L151.552 235.479C151.552 235.316 151.471 235.316 151.308 235.479L150.82 235.723H150.576C150.576 235.723 150.413 235.885 150.088 236.211L149.6 236.699C149.437 236.862 149.274 236.943 149.111 236.943C148.949 237.106 148.786 237.268 148.623 237.431C148.461 237.431 148.379 237.431 148.379 237.431C148.379 237.594 148.298 237.675 148.135 237.675L147.891 237.919C147.891 237.919 148.054 237.919 148.379 237.919C148.054 238.082 147.81 238.245 147.647 238.408C147.647 238.57 147.566 238.733 147.403 238.896H147.647H147.403C146.915 239.221 146.264 239.547 145.45 239.872C144.637 240.197 144.067 240.523 143.742 240.848C142.928 241.174 142.196 241.499 141.545 241.825C141.057 242.15 140.569 242.638 140.081 243.289C140.081 243.289 139.918 243.452 139.593 243.777C139.43 243.94 139.267 244.021 139.104 244.021C138.616 244.021 138.372 243.94 138.372 243.777C138.209 244.591 137.315 245.16 135.687 245.486C136.338 245.16 136.745 244.916 136.908 244.753H136.664L136.42 244.998C136.257 245.16 136.176 245.16 136.176 244.998C136.176 244.998 136.094 245.079 135.931 245.242V244.998H135.687C135.525 244.998 135.443 245.079 135.443 245.242C135.443 245.242 135.362 245.242 135.199 245.242C135.362 245.079 135.362 244.998 135.199 244.998C135.037 245.16 134.955 245.16 134.955 244.998H134.711L134.955 245.242C134.792 245.242 134.63 245.242 134.467 245.242C134.467 245.404 134.386 245.486 134.223 245.486C134.06 245.486 133.979 245.567 133.979 245.73C133.979 245.892 133.898 245.974 133.735 245.974L133.491 245.73V245.974H133.247C133.409 245.811 133.409 245.73 133.247 245.73C133.247 245.73 133.328 245.648 133.491 245.486C133.328 245.648 133.165 245.73 133.003 245.73C133.003 245.73 132.921 245.811 132.758 245.974C132.596 245.974 132.514 245.892 132.514 245.73C132.677 245.73 132.677 245.73 132.514 245.73V245.974C132.514 245.974 132.352 246.055 132.026 246.218C131.701 246.543 131.538 246.625 131.538 246.462C131.538 246.462 131.619 246.462 131.782 246.462L132.026 246.218C132.026 246.218 131.945 246.299 131.782 246.462C131.619 246.462 131.457 246.543 131.294 246.706H131.05V246.462L130.318 247.194C130.155 247.194 130.074 247.194 130.074 247.194C130.074 247.357 129.992 247.438 129.83 247.438C129.992 247.601 129.83 247.764 129.341 247.926C129.016 248.089 128.691 248.089 128.365 247.926C128.365 247.926 128.284 248.008 128.121 248.17C127.958 248.659 127.633 248.984 127.145 249.147C126.657 249.472 126.168 249.798 125.68 250.123C125.518 250.123 125.436 250.204 125.436 250.367C125.274 250.367 125.111 250.449 124.948 250.611H124.704C124.379 250.937 124.135 251.099 123.972 251.099C123.809 251.099 123.565 251.181 123.24 251.343H123.484C122.996 251.832 122.426 252.157 121.775 252.32C121.124 252.645 120.717 252.889 120.555 253.052C120.229 253.215 119.985 253.296 119.823 253.296C119.497 253.459 119.253 253.621 119.09 253.784C118.765 253.947 118.439 254.11 118.114 254.272C117.789 254.598 117.3 254.923 116.65 255.249C115.999 255.574 115.673 255.737 115.673 255.737C115.511 255.737 115.429 255.737 115.429 255.737C115.266 255.9 115.104 255.981 114.941 255.981C114.453 256.144 113.883 256.388 113.233 256.713C112.907 256.876 112.5 256.957 112.012 256.957C111.524 257.12 111.117 257.364 110.792 257.689C110.304 257.689 109.897 257.771 109.571 257.933C109.246 257.933 109.083 257.933 109.083 257.933C108.921 258.096 108.676 258.178 108.351 258.178C108.188 258.178 108.107 258.178 108.107 258.178C108.107 258.34 107.944 258.34 107.619 258.178C107.293 258.178 107.293 258.096 107.619 257.933C107.782 257.933 107.782 257.933 107.619 257.933C107.944 257.771 108.188 257.608 108.351 257.445C108.514 257.445 108.758 257.364 109.083 257.201C109.083 257.039 109.246 256.794 109.571 256.469C108.921 256.794 108.432 256.957 108.107 256.957L108.351 257.201C106.724 257.527 105.748 257.689 105.422 257.689H104.202H103.958C103.144 258.178 102.331 258.584 101.517 258.91C100.215 259.561 98.9135 260.13 97.6118 260.618C96.1473 261.269 94.7642 261.839 93.4625 262.327V262.571C92.8116 262.571 92.4049 262.652 92.2421 262.815C92.0794 262.978 91.5913 263.14 90.7777 263.303C90.2895 263.303 90.3709 263.059 91.0218 262.571C91.5099 262.245 91.5913 262.001 91.2658 261.839C92.0794 261.35 92.7303 260.862 93.2184 260.374C93.5439 260.049 94.1134 259.642 94.927 259.154C94.2761 259.479 93.8693 259.723 93.7066 259.886C93.2184 259.886 92.9744 259.805 92.9744 259.642C92.4862 260.13 91.9981 260.537 91.5099 260.862C90.859 261.35 90.2082 261.757 89.5573 262.083C89.0692 262.408 88.4997 262.652 87.8488 262.815C87.1979 262.978 86.6284 263.222 86.1403 263.547C84.3504 264.035 82.5605 264.279 80.7706 264.279H81.0147C80.6893 264.117 80.5266 264.117 80.5266 264.279C80.3638 264.442 80.1198 264.361 79.7943 264.035C79.6316 263.873 79.713 263.71 80.0384 263.547C80.2011 263.547 80.1198 263.384 79.7943 263.059C79.9571 263.059 80.1198 262.978 80.2825 262.815C79.7943 262.978 79.2248 263.222 78.574 263.547C77.5977 263.873 76.6214 264.198 75.6451 264.523C74.5061 264.849 73.5298 265.174 72.7162 265.5C69.7873 266.313 66.9398 266.72 64.1736 266.72C63.8481 266.557 63.6041 266.557 63.4414 266.72C63.2786 266.883 63.0346 266.801 62.7091 266.476C62.3837 266.476 62.4651 266.395 62.9532 266.232C63.2786 266.069 63.2786 265.825 62.9532 265.5C63.4414 265.174 63.8481 264.93 64.1736 264.768C64.3363 264.605 64.7431 264.442 65.394 264.279C65.394 263.791 65.638 263.303 66.1262 262.815C66.6143 262.49 67.0211 262.164 67.3465 261.839C68.1601 261.676 68.811 261.35 69.2991 260.862C69.6246 260.537 70.0314 260.211 70.5195 259.886H70.2754C71.089 259.561 71.8212 259.154 72.4721 258.666C73.123 258.34 73.7738 258.015 74.4247 257.689C75.2383 257.364 75.9705 257.039 76.6214 256.713C77.2722 256.55 78.0045 256.306 78.818 255.981C79.1435 255.655 79.6316 255.33 80.2825 255.005C80.4452 254.842 80.5266 254.679 80.5266 254.516C80.5266 254.354 80.6893 254.191 81.0147 254.028C80.852 253.54 80.852 253.133 81.0147 252.808C81.1774 252.482 81.3401 252.157 81.5029 251.832C81.991 251.669 82.3978 251.181 82.7232 250.367V250.123C82.3978 250.286 82.2351 250.367 82.2351 250.367C82.0724 250.53 81.8283 250.693 81.5029 250.855C81.1774 250.855 80.9334 250.855 80.7706 250.855C80.6079 251.018 80.3638 251.099 80.0384 251.099C79.713 251.262 79.3062 251.343 78.818 251.343H78.3299C78.1672 251.343 78.1672 251.262 78.3299 251.099L79.0621 250.367C79.0621 250.204 79.2248 249.96 79.5503 249.635C79.8757 249.472 80.2011 249.228 80.5266 248.903C80.852 248.74 81.0961 248.577 81.2588 248.415C81.2588 248.252 81.4215 248.089 81.7469 247.926C82.3978 247.601 82.886 247.438 83.2114 247.438C83.2114 247.113 83.2927 246.95 83.4555 246.95C83.6182 246.95 83.6995 246.869 83.6995 246.706C83.6995 246.869 83.7809 246.869 83.9436 246.706C83.9436 246.706 83.9436 246.787 83.9436 246.95L84.1877 246.706H84.4318C84.7572 246.543 85.0013 246.381 85.164 246.218C85.164 246.218 85.3267 246.137 85.6521 245.974H85.8962L86.3844 245.486L86.1403 245.242L86.8725 244.509H86.6284H86.8725C87.0352 244.347 87.1979 244.265 87.3606 244.265C87.5234 244.265 87.7674 244.184 88.0929 244.021C88.7437 243.696 89.1505 243.452 89.3132 243.289C89.476 243.289 89.5573 243.208 89.5573 243.045C89.5573 243.045 89.6387 243.045 89.8014 243.045C89.8014 242.882 89.72 242.882 89.5573 243.045C89.3946 243.208 89.2319 243.289 89.0692 243.289C89.0692 243.289 89.0692 243.37 89.0692 243.533C88.7437 243.696 88.6624 243.614 88.8251 243.289C88.8251 242.964 88.6624 242.882 88.3369 243.045V242.801C88.3369 242.801 88.4183 242.638 88.581 242.313H88.3369H88.581C88.581 242.15 88.6624 242.069 88.8251 242.069C88.8251 242.069 88.8251 242.15 88.8251 242.313C88.8251 242.15 88.9065 242.069 89.0692 242.069C89.0692 242.069 89.0692 241.987 89.0692 241.825H89.3132L89.0692 242.069C89.2319 242.069 89.3132 241.987 89.3132 241.825H89.5573C89.72 241.662 89.9641 241.58 90.2895 241.58C90.2895 241.418 90.4523 241.336 90.7777 241.336C90.2895 241.336 89.9641 241.418 89.8014 241.58C89.8014 241.418 89.8828 241.336 90.0455 241.336L90.2895 241.092V240.848L90.7777 240.36C90.9404 240.197 91.0218 240.035 91.0218 239.872H91.2658V239.628C91.2658 239.791 91.3472 239.791 91.5099 239.628H91.754C91.754 239.628 91.9167 239.465 92.2421 239.14V239.384C92.4049 239.221 92.4862 239.14 92.4862 239.14C92.6489 239.14 92.7303 239.058 92.7303 238.896C92.7303 238.896 92.8116 238.896 92.9744 238.896C93.2998 238.733 93.7066 238.57 94.1947 238.408C94.5202 238.245 94.8456 238.082 95.171 237.919C95.171 237.919 95.0083 237.919 94.6829 237.919C95.0083 237.594 95.3337 237.35 95.6592 237.187C95.9846 237.024 96.31 236.862 96.6355 236.699C97.1236 236.211 97.7745 235.804 98.5881 235.479C98.9135 235.316 99.1576 235.235 99.3203 235.235C99.3203 235.235 99.483 235.153 99.8084 234.99C99.9712 234.99 100.215 234.828 100.541 234.502C100.703 234.177 100.785 234.096 100.785 234.258C101.273 234.096 101.517 233.933 101.517 233.77C101.68 233.933 101.842 233.933 102.005 233.77C102.005 233.77 102.168 233.689 102.493 233.526C102.656 233.363 103.063 233.119 103.714 232.794C103.388 232.794 103.307 232.712 103.47 232.55C103.632 232.387 103.876 232.387 104.202 232.55C104.527 232.224 104.69 232.062 104.69 232.062L105.178 231.573C105.829 231.248 106.968 230.76 108.595 230.109C108.921 230.109 109.571 229.702 110.548 228.889C111.361 228.238 111.849 227.912 112.012 227.912C112.663 227.587 113.233 227.343 113.721 227.18H113.477C113.965 226.855 114.534 226.529 115.185 226.204C115.673 226.041 116.161 225.797 116.65 225.472H117.382C118.521 224.658 119.66 224.007 120.799 223.519C121.287 223.194 121.775 222.868 122.263 222.543C122.914 222.38 123.484 222.136 123.972 221.81C124.623 221.485 125.192 221.241 125.68 221.078C126.331 220.753 126.901 220.265 127.389 219.614C128.04 219.126 128.772 218.719 129.586 218.393C129.911 218.068 130.155 217.905 130.318 217.905C130.48 217.905 130.725 217.824 131.05 217.661H131.294C131.457 217.498 131.619 217.254 131.782 216.929C131.945 216.766 132.108 216.685 132.27 216.685C132.596 216.522 132.677 216.441 132.514 216.441C132.514 216.441 132.677 216.359 133.003 216.197C133.165 216.197 133.328 216.115 133.491 215.953L133.979 215.465C132.677 216.115 131.619 216.522 130.806 216.685V216.929C130.806 216.929 130.643 216.929 130.318 216.929C130.155 216.929 130.155 216.848 130.318 216.685C130.48 216.685 130.48 216.604 130.318 216.441L131.05 215.709C131.05 215.546 131.294 215.22 131.782 214.732C132.108 214.57 132.27 214.407 132.27 214.244C132.433 214.081 132.596 213.919 132.758 213.756C133.247 213.268 133.735 212.861 134.223 212.536C134.874 212.047 135.443 211.641 135.931 211.315C136.094 211.153 136.257 211.071 136.42 211.071C136.582 210.908 136.745 210.746 136.908 210.583C136.908 210.583 136.989 210.583 137.152 210.583L137.396 210.339H137.64C137.965 210.176 138.209 210.014 138.372 209.851C138.535 209.688 138.779 209.525 139.104 209.363C139.104 209.363 139.186 209.363 139.348 209.363L140.081 208.63C140.081 208.63 139.999 208.549 139.837 208.386C139.999 208.224 140.162 208.142 140.325 208.142C140.488 207.98 140.65 207.735 140.813 207.41C140.65 207.573 140.488 207.654 140.325 207.654C140.488 207.654 140.569 207.654 140.569 207.654C140.569 207.491 140.65 207.41 140.813 207.41C141.138 207.247 141.708 207.003 142.521 206.678C143.335 206.352 143.905 206.108 144.23 205.946C144.881 205.62 145.532 205.295 146.183 204.969C146.833 204.644 147.322 204.237 147.647 203.749C147.81 203.586 147.891 203.424 147.891 203.261C147.891 203.098 148.054 203.017 148.379 203.017C148.705 202.854 149.03 202.935 149.356 203.261C149.356 202.447 150.006 201.878 151.308 201.552L152.04 200.088C151.878 200.088 151.634 200.169 151.308 200.332C151.471 200.169 151.715 200.088 152.04 200.088C152.203 199.925 152.366 199.844 152.529 199.844C152.691 199.844 152.935 199.762 153.261 199.6C153.423 199.437 153.505 199.274 153.505 199.112C153.668 198.949 153.83 198.786 153.993 198.623L155.457 197.159C155.783 196.833 156.027 196.671 156.19 196.671C156.352 196.671 156.515 196.589 156.678 196.427L157.166 195.939C157.329 195.776 157.41 195.613 157.41 195.45C157.898 195.288 158.142 195.125 158.142 194.962H158.386C158.712 194.637 158.874 194.474 158.874 194.474C159.037 193.986 159.363 193.661 159.851 193.498C159.2 193.498 159.363 193.335 160.339 193.01C160.339 193.01 160.42 192.928 160.583 192.766C160.583 192.603 160.583 192.522 160.583 192.522C160.746 192.359 160.827 192.196 160.827 192.033C161.152 191.708 161.559 191.382 162.047 191.057C162.698 190.732 163.268 190.406 163.756 190.081C163.919 190.081 164 189.999 164 189.837L165.22 188.616C165.709 188.128 165.953 187.803 165.953 187.64L165.22 188.372C164.244 188.698 163.675 188.86 163.512 188.86C162.861 189.186 162.291 189.349 161.803 189.349L162.047 189.593C161.722 189.43 161.559 189.43 161.559 189.593C161.722 189.593 161.641 189.593 161.315 189.593C161.152 189.593 161.152 189.593 161.315 189.593C161.478 189.43 161.478 189.267 161.315 189.104C161.641 188.942 161.803 188.86 161.803 188.86C161.803 188.698 161.966 188.535 162.291 188.372C162.291 188.372 162.454 188.047 162.78 187.396C163.105 187.396 163.268 187.315 163.268 187.152C163.431 186.989 163.675 186.826 164 186.664H163.756C164.407 186.013 164.895 185.606 165.22 185.443C165.546 185.118 166.034 184.792 166.685 184.467C166.848 184.142 167.01 183.979 167.173 183.979C167.336 183.979 167.417 183.898 167.417 183.735C167.417 183.898 167.498 183.898 167.661 183.735L168.149 183.491C168.475 183.328 168.719 183.165 168.882 183.003C169.044 182.84 169.288 182.677 169.614 182.514H169.858C169.858 182.352 169.939 182.27 170.102 182.27C170.265 182.108 170.346 181.945 170.346 181.782H170.59H170.102L171.078 180.806H170.834H171.078C171.404 180.481 171.892 180.155 172.543 179.83C172.543 179.83 172.705 179.748 173.031 179.586C173.356 179.26 173.682 179.097 174.007 179.097C174.332 178.935 174.658 178.691 174.983 178.365C175.472 177.877 175.716 177.552 175.716 177.389H175.96C175.96 177.389 176.041 177.389 176.204 177.389C176.204 177.226 176.285 177.145 176.448 177.145C176.448 177.145 176.529 177.063 176.692 176.901C176.692 176.901 176.773 176.819 176.936 176.657C176.936 176.494 176.936 176.413 176.936 176.413C177.099 176.413 177.18 176.331 177.18 176.169C177.18 175.68 177.587 175.599 178.4 175.924C178.238 175.436 178.4 175.111 178.889 174.948C179.377 174.623 179.865 174.379 180.353 174.216C180.028 174.379 179.702 174.623 179.377 174.948H179.621C179.621 174.948 179.702 174.785 179.865 174.46C179.865 174.46 179.946 174.46 180.109 174.46H180.353H180.597V174.216H180.841C181.329 173.89 182.062 173.24 183.038 172.263C183.201 171.938 183.363 171.775 183.526 171.775C183.689 171.775 183.933 171.612 184.258 171.287C184.258 171.124 184.34 170.962 184.502 170.799C184.828 170.473 184.99 170.311 184.99 170.311C185.153 169.985 185.234 169.904 185.234 170.067C185.234 170.067 185.316 169.904 185.479 169.579C185.641 169.579 185.804 169.497 185.967 169.334C185.967 169.172 185.967 169.09 185.967 169.09C186.129 169.09 186.211 169.009 186.211 168.846C186.374 168.521 186.536 168.358 186.699 168.358C186.862 168.195 187.024 167.951 187.187 167.626C186.536 167.626 186.699 167.463 187.675 167.138C187.675 166.812 187.757 166.65 187.919 166.65C187.919 166.324 188.001 166.08 188.163 165.917C188.489 165.429 188.896 164.941 189.384 164.453C189.872 163.965 190.36 163.395 190.848 162.744H191.092C191.255 162.582 191.58 161.931 192.069 160.792C192.719 159.653 193.126 159.083 193.289 159.083C193.614 158.595 194.021 158.107 194.509 157.619C194.835 157.131 195.16 156.643 195.486 156.154C195.974 155.504 196.381 154.934 196.706 154.446C197.031 154.12 197.194 153.958 197.194 153.958C197.52 153.47 197.845 152.9 198.17 152.249C198.659 151.598 199.147 150.948 199.635 150.297C199.96 149.808 200.286 149.32 200.611 148.832C201.099 148.344 201.506 147.775 201.832 147.124C202.32 146.473 203.133 145.578 204.272 144.439V143.707V143.463C204.272 143.3 204.354 143.3 204.516 143.463V143.218C204.516 143.218 204.679 143.056 205.005 142.73V142.974C205.167 142.812 205.249 142.73 205.249 142.73C205.249 142.568 205.33 142.486 205.493 142.486C205.655 142.161 205.818 141.917 205.981 141.754C206.306 141.591 206.55 141.347 206.713 141.022C206.55 141.022 206.469 141.103 206.469 141.266C206.632 140.94 206.794 140.696 206.957 140.534C207.12 140.371 207.283 140.127 207.445 139.801C207.771 139.151 208.096 138.744 208.422 138.581C208.422 138.418 208.503 138.256 208.666 138.093C208.991 137.767 209.154 137.523 209.154 137.361C209.316 137.198 209.398 137.035 209.398 136.873L209.886 136.384L210.13 136.14V135.652C210.13 135.652 210.293 135.327 210.618 134.676C210.456 134.839 210.374 134.92 210.374 134.92C210.374 134.757 210.537 134.595 210.862 134.432V133.944V133.456C211.025 133.13 211.106 132.967 211.106 132.967C211.269 132.805 211.432 132.561 211.595 132.235C211.757 131.91 211.839 131.747 211.839 131.747C212.001 131.584 212.164 131.34 212.327 131.015V130.771V130.283C212.327 129.957 212.408 129.632 212.571 129.306V128.818V128.574C212.571 128.737 212.489 128.818 212.327 128.818C212.327 128.818 212.327 128.899 212.327 129.062C212.164 129.388 212.001 129.713 211.839 130.038C211.676 130.364 211.513 130.689 211.35 131.015C211.35 131.177 211.269 131.259 211.106 131.259C210.781 132.235 210.456 132.967 210.13 133.456C209.967 133.781 209.805 134.106 209.642 134.432C209.479 134.757 209.316 135.083 209.154 135.408L206.957 137.605C206.794 137.605 206.713 137.686 206.713 137.849C206.876 137.849 206.794 137.849 206.469 137.849C206.469 137.849 206.469 137.767 206.469 137.605C206.632 137.279 206.632 137.117 206.469 137.117C206.469 136.954 206.55 136.791 206.713 136.628C206.713 136.628 206.713 136.222 206.713 135.408C207.038 135.245 207.201 134.92 207.201 134.432C207.689 133.293 208.177 132.316 208.666 131.503C208.666 131.177 208.666 131.015 208.666 131.015C208.828 130.852 208.91 130.689 208.91 130.527C208.91 130.364 208.991 130.364 209.154 130.527V130.038H209.398C209.561 129.713 209.642 129.469 209.642 129.306C209.642 129.144 209.723 128.981 209.886 128.818C209.886 128.655 209.967 128.574 210.13 128.574V127.842V127.598C210.13 127.76 210.049 127.842 209.886 127.842V126.621V126.865V126.621L210.374 126.133C210.374 125.808 210.456 125.564 210.618 125.401C210.781 125.076 210.862 124.75 210.862 124.425C211.025 124.262 211.106 124.099 211.106 123.937C211.595 122.798 211.757 121.74 211.595 120.764C211.595 120.601 211.513 120.438 211.35 120.275L211.595 120.031C211.595 119.706 211.757 119.543 212.083 119.543C211.269 119.055 211.188 118.323 211.839 117.347V118.323L212.083 118.079C211.92 118.079 211.839 117.997 211.839 117.835C211.839 117.672 211.839 117.591 211.839 117.591C212.001 117.428 212.083 117.347 212.083 117.347V117.103V116.858C212.245 117.021 212.245 117.021 212.083 116.858C212.083 116.696 212.164 116.696 212.327 116.858V116.614V116.126C212.327 115.801 212.245 115.638 212.083 115.638V115.394H212.327H212.083H212.327C212.327 115.231 212.164 114.987 211.839 114.662C211.676 114.662 211.595 114.58 211.595 114.418V114.662V114.906C211.269 114.58 210.944 114.255 210.618 113.93C210.293 113.604 209.967 113.279 209.642 112.953C209.805 113.279 209.967 113.523 210.13 113.685L209.642 113.197C209.642 113.035 209.561 112.953 209.398 112.953C209.398 112.791 209.316 112.709 209.154 112.709L208.91 112.465C208.584 112.14 208.422 111.977 208.422 111.977C208.096 111.814 207.771 111.652 207.445 111.489C207.12 111.326 206.794 111.163 206.469 111.001C206.144 110.675 205.493 110.35 204.516 110.024C204.028 110.024 203.703 109.943 203.54 109.78H203.296H202.808C201.994 109.455 201.262 109.292 200.611 109.292C199.96 109.292 199.228 109.292 198.415 109.292C197.601 109.455 196.869 109.618 196.218 109.78C195.567 109.78 194.835 109.943 194.021 110.268C193.858 110.431 193.696 110.513 193.533 110.513C193.37 110.513 193.126 110.594 192.801 110.757C192.801 110.919 192.475 111.001 191.824 111.001H190.36C189.872 111.489 188.977 111.977 187.675 112.465C187.513 112.465 187.35 112.546 187.187 112.709C187.024 112.709 186.862 112.709 186.699 112.709H185.967C185.641 112.872 185.316 112.953 184.99 112.953C184.828 112.953 184.584 113.035 184.258 113.197C184.421 113.035 184.584 112.953 184.746 112.953C184.909 112.953 185.072 112.872 185.234 112.709H184.99H184.746H184.502H184.258C184.095 112.709 184.014 112.791 184.014 112.953H183.282C183.607 112.791 183.526 112.791 183.038 112.953C182.712 112.953 182.712 112.872 183.038 112.709H182.794V112.953H182.55C181.899 113.93 180.678 114.58 178.889 114.906C178.563 115.069 178.238 115.231 177.912 115.394C177.75 115.557 177.505 115.719 177.18 115.882H177.668H177.18C176.855 116.045 176.448 116.208 175.96 116.37C175.472 116.533 174.983 116.777 174.495 117.103V117.347H174.251H174.007H173.763H174.007H173.519C173.519 117.347 173.6 117.428 173.763 117.591C173.6 117.428 173.519 117.428 173.519 117.591V117.347C173.519 117.347 173.438 117.428 173.275 117.591C173.112 117.753 173.031 117.916 173.031 118.079C173.031 118.242 172.949 118.323 172.787 118.323H172.543C172.543 118.323 172.461 118.323 172.299 118.323V118.079C172.136 118.079 172.054 118.16 172.054 118.323C172.217 118.323 172.217 118.323 172.054 118.323L171.81 118.079C171.81 118.079 171.729 118.16 171.566 118.323C169.614 118.811 167.987 119.625 166.685 120.764L165.953 121.496C166.115 121.496 165.953 121.577 165.464 121.74C164.976 121.903 164.651 121.821 164.488 121.496C164.163 122.309 163.593 122.879 162.78 123.204C162.129 123.367 161.397 123.53 160.583 123.693C160.908 123.53 161.234 123.448 161.559 123.448C161.885 123.286 162.21 123.123 162.536 122.96H162.291C162.291 122.96 162.21 122.96 162.047 122.96C162.047 122.96 161.885 123.042 161.559 123.204C161.397 123.367 161.315 123.448 161.315 123.448C161.315 123.286 161.234 123.286 161.071 123.448V123.204H160.583L160.339 123.448C160.339 123.611 160.258 123.693 160.095 123.693C160.095 123.53 160.013 123.53 159.851 123.693C159.688 123.693 159.607 123.611 159.607 123.448H159.363C159.525 123.448 159.607 123.53 159.607 123.693H158.63V123.937C158.468 123.937 158.305 124.018 158.142 124.181C157.98 124.343 157.817 124.343 157.654 124.181H157.41C157.41 124.343 157.329 124.425 157.166 124.425V124.181C157.329 124.181 157.41 124.099 157.41 123.937C157.247 124.099 157.003 124.181 156.678 124.181H156.434H156.19C156.19 124.343 156.108 124.425 155.946 124.425H155.457C155.295 124.587 155.132 124.669 154.969 124.669C154.807 124.669 154.725 124.75 154.725 124.913C154.562 124.913 154.481 124.913 154.481 124.913C154.644 124.75 154.888 124.669 155.213 124.669C155.213 124.506 155.295 124.425 155.457 124.425H155.213L154.969 124.669C154.807 124.669 154.644 124.75 154.481 124.913C154.481 124.75 154.4 124.669 154.237 124.669C154.237 124.669 154.237 124.75 154.237 124.913H153.993C154.156 124.913 154.237 124.832 154.237 124.669H153.505V124.913C153.505 124.913 153.423 124.832 153.261 124.669C153.261 124.669 153.342 124.587 153.505 124.425C153.668 124.425 153.668 124.506 153.505 124.669C153.505 124.669 153.586 124.669 153.749 124.669L153.505 124.425H153.017H152.773C152.773 124.425 152.691 124.425 152.529 124.425C152.529 124.425 152.447 124.343 152.284 124.181C152.284 124.181 152.284 124.262 152.284 124.425L152.04 124.181H151.796C151.634 124.181 151.552 124.099 151.552 123.937C151.878 123.611 151.878 123.448 151.552 123.448C151.552 123.448 151.715 123.367 152.04 123.204V122.96H152.284V123.204V122.96V123.204H152.773H153.017H152.773C152.773 123.204 152.854 123.286 153.017 123.448V123.204C153.017 123.367 153.179 123.448 153.505 123.448H153.749H154.237C154.074 123.448 153.912 123.448 153.749 123.448C153.586 123.286 153.423 123.204 153.261 123.204H153.505H153.749H153.993H154.237V122.96C154.4 122.96 154.481 122.879 154.481 122.716C154.644 122.716 154.725 122.716 154.725 122.716C154.725 122.554 154.807 122.472 154.969 122.472H155.213C155.213 122.472 155.295 122.472 155.457 122.472C155.457 122.472 155.539 122.391 155.701 122.228C155.701 122.228 155.864 122.228 156.19 122.228V122.472C156.352 122.472 156.434 122.391 156.434 122.228H156.922C157.247 122.065 157.573 121.984 157.898 121.984C158.386 121.984 158.793 121.821 159.119 121.496C159.119 121.496 159.037 121.496 158.874 121.496C159.2 121.496 159.363 121.415 159.363 121.252C159.363 121.252 159.2 121.333 158.874 121.496C158.874 121.333 158.793 121.252 158.63 121.252C158.63 121.252 158.305 121.414 157.654 121.74C157.329 121.74 157.003 121.821 156.678 121.984C155.864 121.984 155.295 122.065 154.969 122.228H153.505C153.342 122.065 153.017 121.984 152.529 121.984C151.878 122.309 151.308 122.554 150.82 122.716C150.332 122.879 149.844 123.042 149.356 123.204C148.054 123.693 146.996 124.262 146.183 124.913C145.206 125.238 144.474 125.564 143.986 125.889C143.986 126.215 143.335 126.215 142.033 125.889C140.732 125.564 140.081 125.076 140.081 124.425C138.616 125.889 136.826 126.215 134.711 125.401C132.758 124.913 131.05 123.774 129.586 121.984C130.399 122.472 131.131 122.96 131.782 123.448C132.596 123.774 133.409 124.018 134.223 124.181H133.735C133.898 123.693 133.735 123.367 133.247 123.204C133.247 123.53 133.084 123.693 132.758 123.693C132.433 123.53 132.108 123.367 131.782 123.204C131.457 123.042 131.294 122.879 131.294 122.716C131.294 122.554 131.131 122.391 130.806 122.228C130.806 122.228 130.887 122.147 131.05 121.984C130.725 121.659 130.562 121.496 130.562 121.496C130.725 121.496 130.643 121.333 130.318 121.008C129.992 121.008 129.748 121.089 129.586 121.252C129.423 121.089 129.26 121.008 129.097 121.008C129.097 121.008 129.016 120.845 128.853 120.52C129.341 120.52 129.423 120.357 129.097 120.031C128.772 119.706 128.853 119.462 129.341 119.299L128.853 118.811C128.853 119.136 128.772 119.299 128.609 119.299V119.543C128.284 119.869 127.877 120.031 127.389 120.031C127.226 120.52 126.982 120.845 126.657 121.008C126.331 121.008 126.006 121.089 125.68 121.252C125.355 120.926 124.948 120.845 124.46 121.008C124.135 121.17 123.809 121.17 123.484 121.008H123.24C121.287 120.357 119.823 118.974 118.846 116.858C118.684 116.858 118.439 116.696 118.114 116.37C118.114 116.045 117.951 115.719 117.626 115.394C117.789 115.719 117.87 115.801 117.87 115.638C117.707 115.313 117.789 115.069 118.114 114.906L117.626 114.418C117.789 114.255 117.87 114.092 117.87 113.93C117.87 113.604 117.789 113.197 117.626 112.709C117.463 112.058 117.463 111.57 117.626 111.245H117.382C117.382 110.919 117.545 110.838 117.87 111.001C117.707 110.675 117.626 110.431 117.626 110.268C117.626 109.943 117.463 109.699 117.138 109.536V109.048C116.975 109.211 116.894 109.292 116.894 109.292C116.731 109.292 116.568 109.373 116.406 109.536C116.406 109.211 116.324 108.885 116.161 108.56C115.999 108.072 115.917 107.584 115.917 107.095L115.429 107.584C115.429 107.584 115.511 107.421 115.673 107.095C115.836 106.77 116.08 106.363 116.406 105.875C116.568 105.387 116.812 104.899 117.138 104.411C117.789 103.109 118.277 102.295 118.602 101.97C119.253 101.156 119.904 100.424 120.555 99.7732C121.043 98.9597 121.206 97.9834 121.043 96.8443V95.868C120.717 95.7053 120.799 95.5426 121.287 95.3799C121.938 95.2172 122.589 95.2985 123.24 95.624C122.426 94.3222 122.345 93.5087 122.996 93.1832C123.646 92.6951 124.46 92.3696 125.436 92.2069C125.111 92.5324 124.867 92.7764 124.704 92.9392C124.541 92.9392 124.297 93.1019 123.972 93.4273H124.216C124.379 93.59 124.541 93.6714 124.704 93.6714C124.704 93.6714 124.704 93.4273 124.704 92.9392C124.867 92.7764 125.029 92.7764 125.192 92.9392C125.355 93.1019 125.436 93.0205 125.436 92.6951L125.924 93.1832C125.924 93.1832 126.087 93.1019 126.413 92.9392L126.168 92.6951C126.168 92.5324 126.25 92.451 126.413 92.451C126.575 92.6137 126.738 92.6951 126.901 92.6951C126.901 92.3696 126.901 92.2069 126.901 92.2069H127.389C127.389 91.8815 127.307 91.6374 127.145 91.4747L127.389 91.2306C127.226 91.3933 126.982 91.4747 126.657 91.4747C126.657 90.8238 126.738 90.3357 126.901 90.0103C126.901 89.1967 126.982 88.6272 127.145 88.3017C126.819 88.4645 126.575 88.6272 126.413 88.7899C126.413 88.7899 126.575 88.6272 126.901 88.3017C127.226 87.9763 127.633 87.5695 128.121 87.0814C128.609 86.4305 129.097 85.861 129.586 85.3728C130.562 84.0711 131.457 83.1762 132.27 82.688C133.409 81.8744 134.386 81.0609 135.199 80.2473C136.176 79.271 136.826 78.132 137.152 76.8302C137.315 76.6675 137.396 76.2607 137.396 75.6099C137.233 75.4472 137.477 75.2844 138.128 75.1217C138.942 74.7963 139.593 74.8776 140.081 75.3658C139.593 73.9013 139.755 72.925 140.569 72.4369C141.545 71.9488 142.603 71.6233 143.742 71.4606C142.766 72.1115 142.115 72.5996 141.789 72.9251H142.033C142.033 73.4132 142.196 73.4946 142.521 73.1691C142.196 73.0064 142.277 72.681 142.766 72.1928C142.928 72.0301 143.091 72.0301 143.254 72.1928C143.416 72.3555 143.498 72.3555 143.498 72.1928H143.742C143.742 72.1928 143.905 72.0301 144.23 71.7047C143.416 70.8911 142.928 70.4843 142.766 70.4843H143.01C142.847 70.647 142.766 70.647 142.766 70.4843C142.603 70.4843 142.521 70.403 142.521 70.2402C142.521 70.403 142.44 70.403 142.277 70.2402C142.277 69.9148 142.277 69.5894 142.277 69.2639C142.115 69.2639 142.033 69.1826 142.033 69.0199H142.277C142.277 68.6944 142.44 68.6944 142.766 69.0199C142.766 68.8571 142.766 68.7758 142.766 68.7758C142.928 68.6131 143.01 68.4504 143.01 68.2876C143.172 68.2876 143.254 68.2063 143.254 68.0436C143.254 67.8808 143.416 67.8808 143.742 68.0436C143.416 68.369 143.254 68.5317 143.254 68.5317C143.579 68.5317 143.66 68.5317 143.498 68.5317C143.498 68.369 143.579 68.2876 143.742 68.2876C143.905 68.2876 143.905 68.2063 143.742 68.0436C144.393 67.7181 144.799 67.4741 144.962 67.3113C145.288 67.3113 145.45 67.1486 145.45 66.8232C145.125 66.8232 144.799 66.9045 144.474 67.0673C144.311 67.23 144.067 67.3113 143.742 67.3113C143.905 67.3113 143.986 67.1486 143.986 66.8232C143.986 66.9859 144.067 67.0673 144.23 67.0673L144.474 66.8232H144.718C144.23 66.8232 144.149 66.6605 144.474 66.335H144.718C144.555 66.1723 144.474 65.7655 144.474 65.1147C144.637 64.4638 144.718 64.057 144.718 63.8943V63.6502C145.044 63.8129 145.125 63.8129 144.962 63.6502C144.962 63.4875 145.125 63.4875 145.45 63.6502V63.1621C145.613 62.8366 145.776 62.7553 145.939 62.918C146.101 63.0807 146.264 62.9994 146.427 62.6739H146.671C146.833 62.6739 146.833 62.6739 146.671 62.6739C146.508 62.5112 146.589 62.3485 146.915 62.1858H147.159C147.322 62.1858 147.484 62.1044 147.647 61.9417C148.135 61.6163 148.623 61.2908 149.111 60.9654C149.762 60.4773 150.25 59.9891 150.576 59.501C150.25 59.3382 150.088 59.4196 150.088 59.745C150.25 59.9077 150.169 59.9077 149.844 59.745C150.169 59.2569 150.576 58.8501 151.064 58.5247C151.552 58.0365 151.959 57.5484 152.284 57.0602C152.935 56.0839 153.749 55.2703 154.725 54.6195C155.051 54.294 155.376 54.1313 155.701 54.1313C156.19 54.1313 156.596 53.9686 156.922 53.6432C157.085 53.6432 157.247 53.3177 157.41 52.6669C157.573 52.016 157.817 51.7719 158.142 51.9346C158.468 51.6092 158.63 51.5279 158.63 51.6906C158.63 51.6906 158.793 51.5279 159.119 51.2024C159.444 51.2024 159.607 51.1211 159.607 50.9584L160.339 50.2261C160.664 49.9007 160.908 49.6566 161.071 49.4939C161.234 49.1685 161.478 48.843 161.803 48.5176C161.478 48.5176 161.315 48.4363 161.315 48.2735C161.478 47.9481 161.966 47.8667 162.78 48.0295C162.942 47.8667 162.942 47.704 162.78 47.5413C162.78 47.3786 162.942 47.2972 163.268 47.2972C163.268 46.8091 163.349 46.4023 163.512 46.0769C164.163 45.2633 164.976 44.7751 165.953 44.6124C166.929 44.287 167.905 43.7988 168.882 43.148V42.9039C169.044 42.9039 169.288 42.6598 169.614 42.1717C170.102 41.6835 170.59 41.114 171.078 40.4632C171.404 39.8123 171.729 39.3241 172.054 38.9987C172.543 38.5106 172.868 38.3478 173.031 38.5106C173.031 38.3478 173.031 38.2665 173.031 38.2665C173.193 38.2665 173.275 38.1851 173.275 38.0224C173.6 37.697 173.926 37.5343 174.251 37.5343C174.739 37.3715 175.146 37.1275 175.472 36.802C176.285 36.1512 177.017 35.5817 177.668 35.0935C178.482 34.4426 179.214 33.8731 179.865 33.385C180.516 33.385 180.923 33.3036 181.085 33.1409L183.282 30.9442C184.258 30.2934 185.072 29.6425 185.723 28.9917C186.536 28.5035 187.35 28.0967 188.163 27.7713C189.14 27.2831 190.035 26.7136 190.848 26.0628C191.499 25.7373 192.15 25.4933 192.801 25.3305C193.452 25.0051 194.103 24.6797 194.753 24.3542C195.404 24.0288 196.055 23.8661 196.706 23.8661C197.357 23.7034 198.089 23.4593 198.903 23.1339H198.659C199.147 23.2966 199.391 23.2966 199.391 23.1339C199.554 22.9711 199.798 22.9711 200.123 23.1339C200.448 23.1339 200.448 23.2966 200.123 23.622C199.798 23.7847 199.798 23.9474 200.123 24.1102C199.798 24.4356 199.472 24.761 199.147 25.0865C198.984 25.2492 198.659 25.4933 198.17 25.8187C198.333 26.3068 198.17 26.795 197.682 27.2831C197.357 27.7713 197.031 28.2594 196.706 28.7476C196.218 28.9103 195.73 29.2357 195.242 29.7239C195.892 29.5612 196.218 29.3984 196.218 29.2357C196.381 29.5612 196.625 29.5612 196.95 29.2357C197.113 29.073 197.194 28.9917 197.194 28.9917C197.194 28.8289 197.275 28.6662 197.438 28.5035C197.764 28.1781 198.008 27.934 198.17 27.7713C198.496 27.6086 198.821 27.3645 199.147 27.0391C198.821 27.0391 198.659 26.9577 198.659 26.795C198.821 26.4696 199.228 26.4696 199.879 26.795C200.204 26.795 200.286 26.7136 200.123 26.5509C200.123 26.3882 200.204 26.3068 200.367 26.3068C200.367 25.8187 200.53 25.4119 200.855 25.0865C201.506 24.4356 202.32 24.0288 203.296 23.8661C204.272 23.5407 205.167 23.2152 205.981 22.8898C205.981 22.8898 206.062 22.8084 206.225 22.6457L206.957 21.9135C206.632 21.5881 206.469 21.4253 206.469 21.4253V21.6694V21.4253V20.9372C206.632 20.7745 206.713 20.7745 206.713 20.9372C206.713 20.7745 206.794 20.6931 206.957 20.6931L207.201 20.4491L206.957 20.6931H207.201C207.364 20.6931 207.364 20.6118 207.201 20.4491C207.364 20.4491 207.445 20.4491 207.445 20.4491C207.608 20.2863 207.771 20.205 207.933 20.205L208.177 19.9609C208.015 19.9609 207.852 20.0423 207.689 20.205C207.689 20.205 207.608 20.205 207.445 20.205V19.9609L207.689 20.205V19.9609H207.933C207.933 19.9609 207.933 19.8795 207.933 19.7168L208.177 18.7405H208.422C208.422 18.7405 208.503 18.6592 208.666 18.4965C208.828 18.3337 208.991 18.2524 209.154 18.2524C209.316 18.2524 209.316 18.2524 209.154 18.2524C209.154 18.0897 209.235 18.0083 209.398 18.0083H209.886C210.211 17.6829 210.456 17.5202 210.618 17.5202C210.781 17.3574 211.025 17.1134 211.35 16.7879C211.35 16.7879 211.269 16.7879 211.106 16.7879C211.432 16.6252 211.839 16.2998 212.327 15.8116C212.652 15.4862 212.896 15.3235 213.059 15.3235C213.222 15.1608 213.466 14.9167 213.791 14.5913C214.117 14.4286 214.279 14.3472 214.279 14.3472C214.442 14.3472 214.686 14.2658 215.012 14.1031V14.3472L215.5 13.3709C215.825 13.3709 216.069 13.2895 216.232 13.1268H216.476C216.476 12.9641 216.476 12.8827 216.476 12.8827C216.639 12.8827 216.72 12.8014 216.72 12.6387C216.883 12.476 217.046 12.3946 217.208 12.3946C217.371 12.2319 217.534 12.0692 217.696 11.9064C217.534 11.9064 217.452 11.9064 217.452 11.9064C217.615 11.7437 217.859 11.6624 218.185 11.6624C218.185 11.6624 218.266 11.581 218.429 11.4183C218.429 11.4183 218.51 11.2556 218.673 10.9302C219.161 10.6047 220.056 10.1166 221.358 9.4657H221.602L222.578 8.4894C222.741 8.32668 222.903 8.24533 223.066 8.24533C223.229 8.08261 223.391 7.9199 223.554 7.75718L223.798 7.51311V7.26903C224.124 7.10631 224.368 7.02496 224.53 7.02496C224.693 7.02496 224.856 6.9436 225.019 6.78088C225.344 6.45546 225.751 6.21138 226.239 6.04866C226.727 5.72323 227.134 5.3978 227.459 5.07236H227.948C228.11 4.74693 228.517 4.4215 229.168 4.09607C229.493 3.93335 229.9 3.60791 230.388 3.11977C231.69 2.46891 232.585 1.98075 233.073 1.65532C233.073 1.65532 233.399 1.4926 234.049 1.16717C234.212 1.00446 234.375 0.923102 234.538 0.923102C234.7 0.923102 234.944 0.841745 235.27 0.679031H236.002H236.49H236.978C237.141 0.841745 237.304 0.923102 237.466 0.923102H239.175H239.419C239.582 1.08582 239.582 1.16717 239.419 1.16717C239.094 1.4926 238.931 1.65532 238.931 1.65532C238.931 1.81804 238.85 1.98076 238.687 2.14347V2.38754C238.687 2.38754 238.768 2.55026 238.931 2.87569L238.687 3.11977V2.87569C238.524 2.71297 238.443 2.63162 238.443 2.63162V2.38754L237.955 2.87569V3.11977C237.304 3.4452 236.978 3.60791 236.978 3.60791C236.816 3.77063 236.653 3.85199 236.49 3.85199V4.09607C236.49 4.09607 236.49 4.17743 236.49 4.34014C236.49 4.17743 236.571 4.17743 236.734 4.34014V4.58421C236.734 4.58421 236.816 4.66557 236.978 4.82829L236.734 4.58421L236.978 4.82829C237.141 4.66557 237.304 4.66557 237.466 4.82829C237.629 4.82829 237.792 4.74693 237.955 4.58421H237.71C238.036 4.25879 238.28 4.09607 238.443 4.09607C238.605 3.93335 238.849 3.68927 239.175 3.36384C239.5 3.68927 239.663 3.77063 239.663 3.60791C239.989 2.95705 240.395 2.38754 240.883 1.8994C241.209 1.57396 241.453 1.41124 241.616 1.41124C241.941 1.41124 242.185 1.24853 242.348 0.923102C243.324 0.597664 244.3 0.516307 245.277 0.679031L245.033 0.434945C245.358 0.760383 245.44 0.841745 245.277 0.679031C245.277 0.516307 245.44 0.597664 245.765 0.923102C245.928 1.08582 245.928 1.24853 245.765 1.41124C245.765 1.41124 245.846 1.4926 246.009 1.65532C246.009 2.30618 245.928 2.71297 245.765 2.87569C245.928 3.36384 246.009 4.01471 246.009 4.82829C245.684 4.66557 245.521 4.74693 245.521 5.07236C245.684 5.3978 245.684 5.72323 245.521 6.04866H245.765C245.44 6.37409 245.277 6.69953 245.277 7.02496C245.602 6.69953 245.846 6.45546 246.009 6.29274C246.334 6.13002 246.66 5.88594 246.985 5.56051C247.636 5.23508 248.287 5.07236 248.938 5.07236C249.589 4.90964 250.321 4.74693 251.135 4.58421C251.46 4.74693 251.541 4.74693 251.379 4.58421C251.379 4.4215 251.541 4.50286 251.867 4.82829C252.192 4.82829 252.274 4.90964 252.111 5.07236C251.948 5.23508 251.948 5.3978 252.111 5.56051C251.948 5.88594 251.867 6.13002 251.867 6.29274C251.867 6.45546 251.704 6.69953 251.379 7.02496C251.704 7.35039 251.785 7.75718 251.623 8.24533C251.46 8.57077 251.379 8.8962 251.379 9.22163C251.053 9.22163 250.809 9.38435 250.646 9.70978C250.646 10.0352 250.565 10.3606 250.402 10.6861H250.646C249.996 11.6624 249.182 12.5573 248.206 13.3709V13.615H247.962C247.962 13.615 247.799 13.7777 247.473 14.1031V14.3472C247.636 14.3472 247.718 14.3472 247.718 14.3472C247.88 14.1845 248.043 14.1031 248.206 14.1031V13.859C248.206 13.859 248.287 13.9404 248.45 14.1031C248.612 13.9404 249.019 13.859 249.67 13.859H250.891C250.891 13.859 251.053 13.9404 251.379 14.1031L251.135 14.3472C250.972 14.5099 250.809 14.5913 250.646 14.5913C250.646 14.5913 250.565 14.6726 250.402 14.8353C250.402 14.9981 250.321 15.1608 250.158 15.3235C249.996 15.3235 249.914 15.4049 249.914 15.5676C249.589 15.5676 249.263 15.7303 248.938 16.0557L248.45 16.5439H248.938C249.263 16.7066 249.263 16.7879 248.938 16.7879C248.775 16.7879 248.694 16.8693 248.694 17.032C248.694 17.032 248.775 17.032 248.938 17.032H248.206C248.043 17.032 247.88 17.032 247.718 17.032C247.718 16.8693 247.636 16.7879 247.473 16.7879C247.311 16.9507 247.148 17.032 246.985 17.032C246.985 17.032 246.904 17.1134 246.741 17.2761C246.579 17.4388 246.416 17.5202 246.253 17.5202C246.253 17.5202 246.172 17.6015 246.009 17.7642C246.009 17.7642 245.928 17.6829 245.765 17.5202L245.521 17.7642C245.195 17.7642 244.87 17.927 244.545 18.2524H244.301H244.056C244.056 18.4151 243.975 18.4965 243.812 18.4965C243.812 18.4965 243.812 18.5778 243.812 18.7405H244.056C243.731 19.066 243.568 19.2287 243.568 19.2287V19.4728V19.7168H244.056H243.568C243.243 19.8795 242.755 20.1236 242.104 20.4491C241.453 20.6118 240.883 20.8558 240.395 21.1813L239.907 21.6694H240.395V21.4253C240.721 21.2626 240.883 21.1813 240.883 21.1813C241.046 21.1813 241.29 21.0999 241.616 20.9372C241.778 20.9372 241.86 20.9372 241.86 20.9372C241.86 20.7745 241.941 20.6931 242.104 20.6931C242.267 20.6931 242.348 20.6931 242.348 20.6931C242.511 20.5304 242.673 20.4491 242.836 20.4491C243.487 20.1236 243.894 19.9609 244.056 19.9609C244.382 19.9609 244.545 19.8795 244.545 19.7168C244.87 19.7168 245.358 19.5541 246.009 19.2287L247.473 18.4965C247.962 18.3337 248.857 18.0897 250.158 17.7642C250.972 17.6015 251.704 17.5202 252.355 17.5202C253.006 17.3574 253.738 17.4388 254.552 17.7642C254.714 17.7642 254.958 17.8456 255.284 18.0083ZM247.718 16.7879C247.88 16.6252 247.962 16.5439 247.962 16.5439C248.124 16.7066 248.206 16.7879 248.206 16.7879C248.531 16.7879 248.694 16.8693 248.694 17.032C248.531 17.032 248.368 17.032 248.206 17.032C248.206 16.8693 248.124 16.7879 247.962 16.7879H247.718ZM242.836 9.22163C242.836 9.22163 242.673 9.38435 242.348 9.70978H242.592C242.755 9.54706 242.836 9.38434 242.836 9.22163ZM206.713 21.1813V20.9372H206.469V21.4253C206.469 21.2626 206.55 21.1813 206.713 21.1813H206.469L206.713 20.9372V21.1813ZM143.01 69.2639H142.766C142.766 69.2639 142.603 69.2639 142.277 69.2639C142.277 69.4267 142.277 69.5894 142.277 69.7521C142.44 69.7521 142.521 69.8334 142.521 69.9962V70.2402H142.766V69.9962V69.7521H142.521C142.521 69.4266 142.684 69.2639 143.01 69.2639V69.508V69.2639ZM143.254 70.2402C143.254 70.403 143.335 70.4843 143.498 70.4843C143.335 70.4843 143.254 70.403 143.254 70.2402ZM144.474 71.4606C144.637 71.2979 144.718 71.2165 144.718 71.2165C144.881 71.2165 145.044 71.1352 145.206 70.9725H144.718C144.555 71.1352 144.474 71.2979 144.474 71.4606ZM145.45 98.7969V98.5529C145.45 98.5529 145.369 98.6342 145.206 98.7969H145.45ZM145.694 70.4843H145.206C145.206 70.647 145.288 70.7284 145.45 70.7284L145.694 70.4843ZM146.183 70.2402C146.508 69.9148 146.833 69.6707 147.159 69.508C146.996 69.508 146.833 69.4267 146.671 69.2639L145.939 69.9962C145.939 70.1589 145.939 70.2402 145.939 70.2402C146.101 70.0775 146.183 70.0775 146.183 70.2402ZM155.946 96.1121L155.701 95.868V96.3562L155.946 96.1121ZM151.796 123.693V123.448V123.693ZM152.284 123.204H152.04C151.878 123.204 151.715 123.286 151.552 123.448C151.552 123.448 151.634 123.448 151.796 123.448H151.552H151.796H152.04L151.796 123.204H152.284V123.448V123.204ZM88.8251 242.557V242.313H88.581C88.4183 242.475 88.3369 242.638 88.3369 242.801H88.581V242.557C88.581 242.557 88.6624 242.475 88.8251 242.313V242.557ZM90.2895 242.557C90.2895 242.557 90.2082 242.638 90.0455 242.801H90.2895V242.557ZM127.877 244.753C128.528 244.591 129.097 244.265 129.586 243.777C129.26 243.94 128.935 244.103 128.609 244.265C128.447 244.428 128.202 244.591 127.877 244.753ZM131.782 242.313C131.619 242.313 131.457 242.394 131.294 242.557H131.538L131.782 242.313ZM134.955 240.116H134.711H134.955ZM136.664 218.637H136.908H136.664ZM169.126 188.616L169.37 188.372H169.126V188.616ZM171.078 187.396H170.102V187.64C170.102 187.64 170.183 187.559 170.346 187.396C170.346 187.559 170.427 187.721 170.59 187.884C170.753 187.884 170.834 187.803 170.834 187.64L171.078 187.396ZM175.716 207.41C175.878 207.247 176.041 207.166 176.204 207.166C176.366 207.003 176.529 206.759 176.692 206.434C176.041 207.085 175.39 207.654 174.739 208.142C174.251 208.63 173.682 209.119 173.031 209.607V209.851L173.763 209.119C174.088 208.793 174.414 208.549 174.739 208.386C175.065 208.061 175.39 207.735 175.716 207.41ZM177.668 205.946C178.156 205.457 178.482 205.051 178.644 204.725C178.319 205.051 178.075 205.213 177.912 205.213L176.692 206.434C176.692 206.434 176.773 206.434 176.936 206.434L177.424 205.946H177.668ZM180.353 203.017L180.109 203.261H179.865C179.865 203.586 179.702 203.912 179.377 204.237H179.621C179.621 204.074 179.702 203.912 179.865 203.749C180.028 203.586 180.109 203.424 180.109 203.261L180.353 203.017ZM188.407 170.067C188.407 169.904 188.407 169.823 188.407 169.823C188.57 169.823 188.652 169.741 188.652 169.579C188.652 169.741 188.57 169.823 188.407 169.823C188.407 169.823 188.407 169.904 188.407 170.067ZM189.628 168.358C189.791 168.358 189.872 168.277 189.872 168.114V168.358H189.628ZM190.848 197.891C190.523 198.217 190.279 198.542 190.116 198.867C190.116 198.705 190.116 198.623 190.116 198.623C190.279 198.623 190.36 198.542 190.36 198.379C190.685 198.054 190.93 197.728 191.092 197.403C191.255 197.403 191.336 197.322 191.336 197.159C191.174 197.322 191.092 197.484 191.092 197.647C191.092 197.647 191.011 197.728 190.848 197.891ZM192.069 196.671C191.906 196.671 191.824 196.752 191.824 196.915C191.824 196.915 191.743 196.915 191.58 196.915H191.824L192.069 196.671ZM192.069 196.427V196.671C192.394 196.183 192.801 195.776 193.289 195.45V195.206V195.45C192.964 195.613 192.719 195.776 192.557 195.939C192.557 196.101 192.394 196.264 192.069 196.427ZM193.533 195.206C193.533 195.206 193.614 195.125 193.777 194.962C193.614 194.962 193.533 195.044 193.533 195.206C193.533 195.206 193.452 195.206 193.289 195.206H193.533ZM199.391 182.27C199.554 182.108 199.635 181.945 199.635 181.782C199.472 182.108 199.065 182.596 198.415 183.247H198.659C198.659 182.921 198.821 182.759 199.147 182.759C199.147 182.596 199.147 182.514 199.147 182.514C199.309 182.514 199.391 182.433 199.391 182.27ZM211.839 166.894V166.65L211.595 166.894C211.595 166.894 211.676 166.975 211.839 167.138V166.894ZM212.083 166.406L211.839 166.65C212.001 166.487 212.083 166.406 212.083 166.406ZM227.459 139.801H227.215C227.378 139.801 227.459 139.883 227.459 140.046C227.785 139.72 227.948 139.557 227.948 139.557V139.069C227.622 139.395 227.459 139.639 227.459 139.801ZM216.964 121.74V122.228V121.74ZM216.476 168.358C216.313 168.358 216.232 168.44 216.232 168.602H216.476V168.358V168.114V168.358ZM213.547 112.709C213.71 112.872 213.71 112.953 213.547 112.953V112.709ZM213.059 126.621V126.865C213.059 126.54 213.059 126.377 213.059 126.377C213.222 126.215 213.303 125.971 213.303 125.645V125.889C213.14 125.889 213.059 126.296 213.059 127.11V126.621ZM198.659 85.861H198.415H198.659ZM184.99 90.7425C184.828 90.7425 184.665 90.8238 184.502 90.9866C184.99 90.9866 185.397 90.9052 185.723 90.7425C186.048 90.7425 186.536 90.5798 187.187 90.2543H186.699C186.048 90.5798 185.479 90.7425 184.99 90.7425ZM174.251 117.103H174.495V117.347C174.332 117.184 174.251 117.103 174.251 117.103ZM164.976 94.6477V94.8917H164.732C164.895 94.8917 164.976 94.8104 164.976 94.6477ZM163.756 95.1358C163.431 95.1358 163.186 95.2172 163.024 95.3799H163.268C163.431 95.3799 163.593 95.3799 163.756 95.3799C163.919 95.2172 164.081 95.1358 164.244 95.1358H163.756ZM170.102 51.2024C169.939 51.3651 169.776 51.4465 169.614 51.4465C169.614 51.4465 169.532 51.5279 169.37 51.6906C169.695 51.3651 170.021 51.2024 170.346 51.2024H170.102ZM181.817 66.091H182.062H181.817ZM194.021 31.4324C194.184 31.2697 194.265 31.1883 194.265 31.1883C194.103 31.351 194.021 31.4324 194.021 31.4324ZM194.509 30.9442H194.265C194.428 30.9442 194.509 30.8629 194.509 30.7002V30.9442ZM196.218 56.328C196.055 56.328 195.974 56.4093 195.974 56.5721C195.974 56.5721 195.811 56.7348 195.486 57.0602L196.218 56.328ZM201.832 52.6669L200.367 53.3991H200.611C200.448 53.3991 200.367 53.4805 200.367 53.6432C200.367 53.6432 200.286 53.6432 200.123 53.6432C200.774 53.3177 201.181 53.0737 201.343 52.9109H201.587L201.832 52.6669ZM233.805 5.31644C233.805 5.31644 233.887 5.23508 234.049 5.07236C233.887 5.07236 233.805 5.15372 233.805 5.31644ZM233.805 5.80459C233.805 5.64187 233.805 5.56051 233.805 5.56051C233.968 5.56051 234.049 5.47916 234.049 5.31644C234.049 5.47916 233.968 5.56051 233.805 5.56051C233.805 5.56051 233.805 5.64187 233.805 5.80459ZM206.469 20.9372V20.6931V20.9372Z" fill="url(#paint0_linear_12_2487)"/>
<defs>
<linearGradient id="paint0_linear_12_2487" x1="36.0823" y1="245.497" x2="250.975" y2="1.076" gradientUnits="userSpaceOnUse">
<stop stop-color="#ED6F2D"/>
<stop offset="1" stop-color="#FFD600"/>
</linearGradient>
</defs>
</svg>
